<svg xmlns="http://www.w3.org/2000/svg" viewBox="0 0 801.9 179.8" fill="#1E37B4"><path d="M671.5 44.3l2.5-20.6h-74.6L585.1 140h67.3l13.4-20.6h-53.2l3.6-27.7h36l2.4-19.6h-36l3.3-27.8zm-95-20.6h-24.4l-7 58.6c-1.2 9.7-1.8 18.6-1.6 21.7l-1.1.5c-1.4-3.6-5.6-13-10.1-22.1l-29.7-58.8h-21.9l-14.3 116.3h24.3l6.8-56.2c1.2-9.4 1.9-18.3 1.5-21l1.2-.5 10.4 21.6 28.1 56.1h23.6zM419.2 140h24.6L458 23.7h-24.6zM409 44.3l2.5-20.6h-73L324.2 140h25l5.8-46.9h41.4l2.5-20.2h-41.4l3.5-28.6zM291 23.7l-8.6 70.4c-2 16.1-12.1 25.4-24.9 25.4-13.1 0-20.9-9.4-18.9-25.6l8.5-70.3h-25L213.4 94c-3.5 28.7 13.1 47.1 41.4 47.1 27.8 0 49.1-18.4 52.6-47.1l8.6-70.4zM140.1 96.4l14.8-34.5a115 115 0 0 0 4.9-13.3h.5a122.37 122.37 0 0 0 1.6 13.2l6.2 34.6zm36 43.6h25.5l-25-116.3h-27.1L95.9 140h25.6l10.6-24.9h39.5zM46.5 121.1H26.8l3.9-31.7h18.6c10.1 0 17.1 5 17.1 14.2 0 11.7-8.2 17.5-19.9 17.5zM49 72H32.9l3.6-29.4h15c11.2 0 16.7 4.7 16.7 13 .1 9.9-7 16.4-19.2 16.4m23.2 7.6v-.5c7.2-1.1 21.6-7 21.6-27.6 0-17.4-12.6-27.8-34.6-27.8h-45L0 140h49c26.9 0 42.6-13 42.6-35.1 0-17.1-12.6-24.3-19.4-25.3zM778.7 0a23.45 23.45 0 0 0-23.6 23.3 23.14 23.14 0 0 0 2.3 10.2L735 62.8l-17.7-39.3h-26.6l29.3 59-50.8 66.7a19.42 19.42 0 0 0-2.4-.2 15.4 15.4 0 1 0 15.4 15.4 15 15 0 0 0-1.9-7.3l48.1-55.6 3.6 8.1 13.6 30.7h26.6l-28-57 31.6-36.5a21.05 21.05 0 0 0 2.5.2 23.501 23.501 0 0 0 .4-47zm-.2 37.1a13.7 13.7 0 1 1 13.8-13.6 13.79 13.79 0 0 1-13.8 13.6z"></path></svg>