<?xml version="1.0" encoding="UTF-8"?>
<svg xmlns="http://www.w3.org/2000/svg" xmlns:xlink="http://www.w3.org/1999/xlink" version="1.1" id="Ebene_1" x="0px" y="0px" viewBox="0 0 380 200" style="enable-background:new 0 0 380 200;" xml:space="preserve">
<style type="text/css">
	.st0{fill:#FFF02D;}
	.st1{fill:#E6002D;}
</style>
<g>
	<polygon id="polygon2" class="st0" points="21.5,117.2 86.7,117.2 86.7,82.8 21.5,82.8  "></polygon>
	<polygon id="polygon4" class="st1" points="41.8,86.5 54.1,86.5 66.4,86.5 66.4,93.9 41.8,93.9  "></polygon>
	<polygon id="polygon6" class="st1" points="41.8,106.1 54.1,106.1 66.4,106.1 66.4,113.5 41.8,113.5  "></polygon>
	<polygon id="polygon8" class="st1" points="55.3,96.3 67,96.3 78.7,96.3 78.7,103.7 55.3,103.7  "></polygon>
	<polygon id="polygon10" class="st1" points="29.5,96.3 41.2,96.3 52.9,96.3 52.9,103.7 29.5,103.7  "></polygon>
	<path id="path12" d="M97.6,111.8c-1.7-1.4-2.6-3.4-2.6-6l4.7-0.6c0.1,1.5,0.5,2.7,1.4,3.4c0.9,0.7,2.2,1.1,3.9,1.1   c1.4,0,2.5-0.3,3.2-0.8c0.7-0.5,1.1-1.3,1.1-2.1c0-0.6-0.2-1.2-0.7-1.6c-0.5-0.4-1.1-0.8-1.7-1c-0.7-0.2-1.6-0.5-2.9-0.8   c-1.5-0.3-2.9-0.8-4.4-1.3c-1.1-0.5-2.1-1.2-2.9-2.2c-0.8-1-1.2-2.3-1.2-4c0-1.4,0.4-2.7,1.2-3.9c0.8-1.2,2-2.1,3.3-2.7   c1.6-0.7,3.3-1,5.1-1c2.7,0,4.9,0.7,6.6,2c1.6,1.3,2.5,3.2,2.6,5.7l-4.7,0.6c-0.1-1.4-0.5-2.4-1.3-3.1c-0.8-0.7-1.9-1-3.2-1   c-1.3,0-2.3,0.3-3,0.8c-0.7,0.5-1.1,1.3-1.1,2.2c0,0.6,0.2,1.2,0.7,1.6c0.5,0.4,1.1,0.8,1.7,1c0.7,0.2,1.7,0.5,2.9,0.8   c1.5,0.3,2.9,0.8,4.3,1.3c1.1,0.5,2.2,1.2,2.9,2.2c0.8,1,1.2,2.3,1.2,4c0,1.4-0.4,2.8-1.2,4c-0.9,1.2-2.1,2.1-3.5,2.6   c-1.7,0.6-3.4,1-5.2,0.9C101.7,113.8,99.3,113.2,97.6,111.8z"></path>
	<path id="path14" d="M119,111.5c-1.5-1.6-2.3-4-2.3-7.1V103c0-1.7,0.3-3.5,1.1-5.1c0.7-1.4,1.8-2.5,3.1-3.3c1.4-0.8,3-1.2,4.7-1.2   c2.3,0,4.2,0.6,5.7,1.9c1.4,1.3,2.3,3,2.5,5.2l-4.3,0.7c0-1-0.4-1.9-1.1-2.7c-0.7-0.7-1.6-1-2.6-1c-1.1,0-2.2,0.5-2.9,1.4   c-0.7,0.9-1.1,2.3-1.1,4.2v1.2c0,1.9,0.4,3.2,1.1,4.2c0.7,0.9,1.8,1.4,2.9,1.4c2.3,0,3.5-1.4,3.6-4.1l4.4,0.7   c-0.2,2.4-1.1,4.2-2.5,5.6c-1.5,1.3-3.4,2-5.9,2C122.7,114,120.5,113.2,119,111.5z"></path>
	<path id="path16" d="M151.7,95.4c1.1,1.3,1.7,3.1,1.7,5.5v12.6h-5.1v-11.8c0-1.3-0.3-2.3-0.9-3c-0.6-0.7-1.5-1.1-2.6-1.1   c-1,0-2,0.3-2.6,1.1c-0.7,0.7-1,1.7-1,3v11.8h-5.1V86.5h5.1v6.3c0,0.9,0,2.2-0.1,3.9c0.6-1,1.4-1.8,2.4-2.4   c1.1-0.6,2.3-0.9,3.5-0.8C148.9,93.5,150.5,94.1,151.7,95.4z"></path>
	<path id="path18" d="M182.1,93.9c-0.3,2.5-0.8,5-1.5,7.4c-0.7,2.6-1.9,6.7-3.6,12.2h-5.4l-3.2-13.7l-3.5,13.7h-5.3   c-1.6-5.4-2.8-9.4-3.4-12.1c-0.6-2.5-1.1-5-1.4-7.5h5.1c0.2,2,0.6,4,1,6.2c0.4,2.2,1.1,5,2,8.5l3.5-14.8h4.5l3.4,14.7   c0.9-3.6,1.6-6.4,2.1-8.6c0.5-2.2,0.8-4.2,1-6.2H182.1z"></path>
	<path id="path20" d="M196.4,93.9h5v19.6h-4.8l0-3.1c-0.5,1.1-1.3,2.1-2.4,2.7c-2.3,1.3-5.2,1.2-7.4-0.2c-1.2-0.8-2.1-1.9-2.6-3.2   c-0.7-1.6-1-3.3-0.9-5.1V103c0-1.7,0.3-3.5,1-5.1c0.6-1.3,1.5-2.5,2.7-3.3c1.2-0.8,2.6-1.2,4.1-1.2c2.5,0,4.3,1,5.4,3.1L196.4,93.9   z M185.8,86.5h5.2V91h-5.2V86.5z M196.4,103.1c0-1.9-0.4-3.2-1.1-4.2c-0.7-0.9-1.8-1.4-2.9-1.4c-1.1-0.1-2.2,0.5-2.9,1.4   c-0.7,0.9-1.1,2.3-1.1,4.2v1.2c0,1.9,0.4,3.3,1.1,4.2c0.7,0.9,1.8,1.4,3,1.4c1.1,0.1,2.2-0.5,2.9-1.4c0.7-0.9,1.1-2.3,1.1-4.2   L196.4,103.1z M194.1,86.5h5.2V91h-5.2V86.5z"></path>
	<path id="path22" d="M218.6,94.6c1.2,0.8,2.1,2,2.6,3.3c0.7,1.6,1,3.3,0.9,5.1v1.4c0,2.9-0.7,5.3-2.1,7c-1.4,1.7-3.3,2.6-5.7,2.6   c-2.4,0-4.1-0.9-5.3-2.8v2.4h-4.9V86.5h5.1v9.8c1.2-1.9,3-2.8,5.5-2.8C216.1,93.5,217.5,93.9,218.6,94.6L218.6,94.6z M217,103.1   c0-1.9-0.4-3.2-1.1-4.2c-0.7-0.9-1.8-1.4-3-1.4c-1.1,0-2.2,0.5-2.9,1.4c-0.7,0.9-1.1,2.3-1.1,4.2v1.2c0,1.9,0.4,3.2,1.1,4.2   c0.7,0.9,1.8,1.4,3,1.4c1.1,0.1,2.2-0.5,2.9-1.4c0.7-0.9,1.1-2.3,1.1-4.2V103.1z"></path>
	<path id="path24" d="M230,91h-5.5v-4.5h5.5V91z M229.8,113.5h-5.1V93.9h5.1V113.5z"></path>
	<path id="path26" d="M234.5,112.3c-1.4-1.1-2.1-2.7-2.2-4.7l4.3-0.6c0.1,1.1,0.4,1.9,1,2.4c0.6,0.5,1.6,0.8,2.9,0.8   c2.3,0,3.4-0.7,3.4-2.1c0-0.7-0.4-1.4-1-1.6c-1-0.4-2.1-0.7-3.2-0.9c-1.2-0.2-2.4-0.6-3.6-1c-0.9-0.3-1.8-0.9-2.4-1.7   c-0.7-0.8-1-1.9-1-3.3c-0.1-1.7,0.7-3.4,2.1-4.4c1.4-1.1,3.3-1.7,5.8-1.7c2.3,0,4.1,0.5,5.5,1.6c1.4,1.1,2.1,2.6,2.2,4.5l-4.3,0.6   c-0.1-2.1-1.3-3.1-3.5-3.1c-1,0-1.7,0.2-2.3,0.6c-0.5,0.4-0.8,0.9-0.8,1.6c0,0.7,0.4,1.3,1,1.6c1,0.4,2.1,0.7,3.2,0.9   c1.2,0.2,2.4,0.5,3.6,1c0.9,0.4,1.8,1,2.4,1.7c0.7,0.8,1,1.9,1,3.3c0.1,1.7-0.7,3.4-2.2,4.4c-1.4,1.1-3.4,1.7-6,1.7   C237.8,114,235.8,113.4,234.5,112.3z"></path>
	<path id="path28" d="M252.6,111.5c-1.5-1.6-2.3-4-2.3-7.1V103c0-1.7,0.3-3.5,1.1-5.1c0.7-1.4,1.8-2.5,3.1-3.3   c1.4-0.8,3-1.2,4.7-1.2c2.3,0,4.2,0.6,5.7,1.9c1.4,1.3,2.3,3,2.5,5.2l-4.3,0.7c0-1-0.4-1.9-1.1-2.7c-0.7-0.7-1.6-1-2.6-1   c-1.1,0-2.2,0.5-2.9,1.4c-0.7,0.9-1.1,2.3-1.1,4.2v1.2c0,1.9,0.4,3.2,1.1,4.2c0.7,0.9,1.8,1.4,2.9,1.4c2.3,0,3.5-1.4,3.6-4.1   l4.4,0.7c-0.2,2.4-1.1,4.2-2.5,5.6c-1.5,1.3-3.4,2-5.9,2C256.3,114,254.1,113.2,252.6,111.5L252.6,111.5z"></path>
	<path id="path30" d="M285.7,95.4c1.1,1.3,1.7,3.1,1.7,5.5v12.6h-5.1v-11.8c0-1.3-0.3-2.3-0.9-3s-1.5-1.1-2.6-1.1   c-1,0-2,0.3-2.6,1.1c-0.7,0.7-1,1.7-1,3v11.8h-5.1V86.5h5.1v6.3c0,0.9,0,2.2-0.1,3.9c0.6-1,1.4-1.8,2.4-2.4   c1.1-0.6,2.3-0.9,3.5-0.8C283,93.5,284.6,94.1,285.7,95.4L285.7,95.4z"></path>
	<path id="path32" d="M321.1,113.5h-5.4V103h-10.6v10.5h-5.4V88.4h5.4v10.2h10.6V88.4h5.4V113.5z"></path>
	<path id="path34" d="M336.6,93.9h5v19.6h-4.8l0-3.1c-0.5,1.1-1.3,2.1-2.4,2.7c-2.3,1.3-5.2,1.2-7.4-0.2c-1.2-0.8-2.1-1.9-2.6-3.2   c-0.7-1.6-1-3.3-0.9-5.1V103c0-1.7,0.3-3.5,1-5.1c0.6-1.3,1.5-2.5,2.7-3.3c1.2-0.8,2.6-1.2,4.1-1.2c2.5,0,4.3,1,5.4,3.1L336.6,93.9   z M336.6,103.1c0-1.9-0.4-3.2-1.1-4.2c-0.7-0.9-1.8-1.4-2.9-1.4c-1.1-0.1-2.2,0.5-2.9,1.4c-0.7,0.9-1.1,2.3-1.1,4.2v1.2   c0,1.9,0.4,3.3,1.1,4.2c0.7,0.9,1.8,1.4,3,1.4c1.1,0.1,2.2-0.5,2.9-1.4c0.7-0.9,1.1-2.3,1.1-4.2L336.6,103.1z"></path>
	<path id="path36" d="M350.1,113.5H345V86.5h5.1V113.5z"></path>
	<path id="path38" d="M358.5,113.5h-5.1V86.5h5.1V113.5z"></path>
</g>
</svg>
