<?xml version="1.0" encoding="UTF-8"?>
<svg xmlns="http://www.w3.org/2000/svg" xmlns:xlink="http://www.w3.org/1999/xlink" version="1.1" id="Ebene_1" x="0px" y="0px" viewBox="0 0 380 200" style="enable-background:new 0 0 380 200;" xml:space="preserve">
<style type="text/css">
	.st0{fill:#00008F;}
	.st1{fill:#FF1721;}
	.st2{fill:#FFFFFF;}
</style>
<g id="MODULE">
	<g id="MODULE_x5F_DESKTOP_x2F_Finanzierungspartner_x5F_Desktop_x5F_1024_x2B_" transform="translate(-498, -242)">
		<g id="AXA_Logo" transform="translate(498, 242)">
			<rect id="base-2" x="143.8" y="53.8" class="st0" width="92.4" height="92.4"></rect>
			<polygon id="switch" class="st1" points="194.7,100.9 200.2,100.9 236.2,53.8 230.9,53.8    "></polygon>
			<path id="axa" class="st2" d="M213.1,120.8c1.6,4.7,4.8,16.9,6.1,17.9h-8.6c0-1.1-0.2-2.2-0.4-3.2c-0.4-1.4-3.5-12-3.5-12h-13.6     l-2.1,3.2c0,0,2.6,8.5,2.7,9c0.3,0.8,1.5,3,1.5,3h-8.2c0,0-0.2-1.3-0.3-1.8c-0.1-0.4-0.8-2.8-0.8-2.8s-1.9,2.2-2.4,3.2     c-0.5,1-0.7,1.5-0.7,1.5h-6.4c0,0-0.2-1.3-0.3-1.8c-0.1-0.4-0.8-3-0.8-3s-1.8,2.3-2.3,3.3c-0.5,1-0.7,1.6-0.7,1.6H166     c0,0,1.8-1.8,2.4-2.6c1.1-1.3,5-6.8,5-6.8l-1.6-5.8h-13.5c0,0-7.7,10.7-8,11.1c-0.3,0.3-2.5,3.7-2.6,4.1h-4V136     c0-0.1,0.1-0.1,0.2-0.2c0.1-0.1,5.8-7.6,11.1-15c4.7-6.5,9.1-12.8,9.5-13.4c0.9-1.4,2.3-4.6,2.3-4.6h7c0,0,0.2,2.9,0.4,3.6     c0.2,0.6,4.4,15.4,4.5,15.6l2.3-3.2l-4-13.1c0,0-0.9-2.5-1.2-2.8h8.1c0,0.8,0.1,1.6,0.3,2.4c0.3,1.1,2.1,7.8,2.1,7.8     s5.6-7.4,5.9-7.9c0.4-0.7,0.6-1.4,0.7-2.2h6.8c0,0-1.2,1-3.4,3.9c-0.7,1-7.9,10.7-7.9,10.7s0.6,2.3,0.9,3.4     c0.1,0.3,0.1,0.5,0.1,0.6c0,0,0.2-0.2,0.4-0.6c1.8-2.5,10.3-14.2,10.8-15.2c0.4-0.8,1-1.7,1.4-2.7h6.6c0,0,0.2,2.1,0.4,2.7     L213.1,120.8z M203,109.7c-1,2.2-6.7,9.6-6.7,9.6h9.1c0,0-1.8-5.7-2.1-7c-0.2-0.8-0.2-1.7-0.2-2.5     C203.2,109.6,203.1,109.4,203,109.7L203,109.7z M168.2,109.7c-1,2.2-6.7,9.6-6.7,9.6h9.1c0,0-1.8-5.7-2.1-7     c-0.2-0.8-0.2-1.7-0.2-2.5C168.3,109.6,168.3,109.4,168.2,109.7L168.2,109.7z M181.9,132.1l2.5-3.6c-0.2-0.3-1.6-4.8-1.6-4.8     l-2.4,3.3L181.9,132.1z"></path>
		</g>
	</g>
</g>
</svg>
