<?xml version="1.0" encoding="UTF-8"?>
<svg xmlns="http://www.w3.org/2000/svg" xmlns:xlink="http://www.w3.org/1999/xlink" version="1.1" id="Ebene_1" x="0px" y="0px" viewBox="0 0 380 200" style="enable-background:new 0 0 380 200;" xml:space="preserve">
<style type="text/css">
	.st0{fill:#0066B4;}
	.st1{fill:#F46F21;}
</style>
<g>
	<g>
		<path class="st0" d="M224,87.1h-4.2v7.1h4c2.9,0,4.2-1.1,4.2-3.6C227.9,88.4,226.6,87.1,224,87.1z"></path>
		<path class="st0" d="M115.9,83.9c-2.1,0-3.2,1.9-3.2,5.5c0,3.5,1.1,5.2,3.2,5.2c2,0,3.1-1.9,3.1-5.6    C119,85.7,117.9,83.9,115.9,83.9z"></path>
		<path class="st0" d="M185.8,92.6c0,1.1,0.7,1.9,1.9,1.9c1.5,0,2.9-1.2,2.9-2.4v-2.4c-1.9,0.6-2.2,0.8-2.7,0.9    C186.2,91.1,185.8,91.5,185.8,92.6z"></path>
		<path class="st0" d="M131.2,92.6c0,1.1,0.7,1.9,1.9,1.9c1.5,0,2.9-1.2,2.9-2.4v-2.4c-1.9,0.6-2.2,0.8-2.7,0.9    C131.6,91.1,131.2,91.5,131.2,92.6z"></path>
		<path class="st0" d="M169.2,84c-2.1,0-3.3,2.1-3.3,5.5c0,3.4,1.1,5.2,3.2,5.2c2.1,0,3.4-2.2,3.4-5.5C172.5,85.9,171.3,84,169.2,84    z"></path>
		<path class="st0" d="M227.5,81c0-2.3-1.1-3.2-4.2-3.2h-3.7v6.4h3.6C226.3,84.3,227.5,83.3,227.5,81z"></path>
		<path class="st0" d="M50.7,65.1V106h278.7V65.1H50.7z M95.7,97.7c-3.1,0-5.4-0.8-7.4-2.5L87.5,97h-2.6v-8.1H88    c0.4,1.8,0.7,2.6,1.3,3.3c1.1,1.5,3.5,2.5,5.8,2.5c2.6,0,4.2-1.1,4.2-2.9c0-1-0.5-1.6-1.6-2c-0.7-0.3-1.7-0.5-2.9-0.8l-1.1-0.3    l-1.1-0.3l-1.1-0.3c-2.9-0.6-4.2-1.3-5.2-2.4c-0.9-1.1-1.3-2.4-1.3-4c0-4.5,3.5-7.3,8.9-7.3c2.6,0,4.7,0.7,6.4,2.2l0.5-1.5h2.6    v7.9h-3.1c-0.5-3.6-2.8-5.7-6.5-5.7c-2.4,0-4.2,1.3-4.2,3c0,1.4,1.1,2.1,4.5,2.8c4.3,0.9,5.2,1.1,6.6,1.7c2.3,1,3.5,2.9,3.5,5.6    C104.3,94.9,101.1,97.7,95.7,97.7z M117.3,97.6c-1.9,0-3.3-0.6-4.5-1.9v3.8c0,1.1,0.3,1.5,1.2,1.5h1.6v2.7h-10.2v-2.7h1.3    c0.9,0,1.2-0.4,1.2-1.5v-14c0-1.1-0.3-1.5-1.2-1.5h-1.3v-2.7h7.4l-0.1,1.9c1.3-1.7,2.8-2.4,5-2.4c4.1,0,6.5,3,6.5,7.9    C124.2,94.4,121.8,97.6,117.3,97.6z M144.5,93.1c0,3.1-1.3,4.5-4.2,4.5c-2.2,0-3.5-0.7-4.2-2.4c-1.3,1.6-3,2.4-5.1,2.4    c-3,0-4.8-1.6-4.8-4.4c0-2,1-3.5,2.7-4c0.5-0.2,1.3-0.4,2.1-0.6l0.6-0.2l0.6-0.1l0.7-0.1c2.4-0.5,3.1-1.1,3.1-2.5    c0-1.6-1.4-2.5-3.7-2.5c-0.9,0-1.3,0.1-1.9,0.4c1,0.4,1.5,1,1.5,1.9c0,1.3-1,2.3-2.4,2.3c-1.5,0-2.7-1.2-2.7-2.8    c0-2.7,2.3-4.2,6.7-4.2c5.2,0,7.4,1.5,7.4,5.3v7.3c0,0.8,0.2,1.1,0.6,1.1c0.6,0,0.8-0.4,0.8-1.5v-1.9v0h2.2V93.1z M157.1,87.5    c-1.3,0-2.3-1-2.3-2.4c0-0.6,0.2-1,0.9-1.9c-1.8,0-3.1,2.3-3.1,5.7v3.9c0,1.1,0.3,1.5,1.2,1.5h1.9V97H145v-2.7h1.5    c0.9,0,1.2-0.4,1.2-1.5v-7.4c0-1.1-0.3-1.5-1.2-1.5H145v-2.7h7.5l-0.2,2.3c1.6-2.1,2.5-2.7,4.2-2.7c1.9,0,3.3,1.4,3.3,3.5    C159.8,86.3,158.8,87.5,157.1,87.5z M179.6,97h-7.1v-1.8c-1.3,1.6-2.9,2.4-5,2.4c-4.1,0-6.8-3.2-6.8-8c0-5.2,2.8-8.8,6.9-8.8    c1.8,0,3,0.6,4.5,2.2v-3.9c0-1.1-0.3-1.5-1.2-1.5h-1.4V75h7.6v17.8c0,1.1,0.3,1.5,1.2,1.5h1.3V97z M199.1,93.1    c0,3.1-1.3,4.5-4.2,4.5c-2.2,0-3.5-0.7-4.2-2.4c-1.3,1.6-3,2.4-5.1,2.4c-3,0-4.8-1.6-4.8-4.4c0-2,1-3.5,2.7-4    c0.5-0.2,1.3-0.4,2.1-0.6l0.6-0.2l0.6-0.1l0.6-0.1c2.4-0.5,3.1-1.1,3.1-2.5c0-1.6-1.4-2.5-3.7-2.5c-0.9,0-1.3,0.1-1.9,0.4    c1,0.4,1.5,1,1.5,1.9c0,1.3-1,2.3-2.4,2.3c-1.5,0-2.7-1.2-2.7-2.8c0-2.7,2.3-4.2,6.7-4.2c5.2,0,7.4,1.5,7.4,5.3v7.3    c0,0.8,0.2,1.1,0.6,1.1c0.6,0,0.8-0.4,0.8-1.5v-1.9v0h2.2V93.1z M210.2,91h-9.6v-4.1h9.6V91z M225.8,97h-15v-2.7h1.7    c1.3,0,1.8-0.4,1.8-1.5V79.3c0-1.1-0.5-1.6-1.8-1.6h-1.7V75h14.9c4.9,0,7.6,1.9,7.6,5.5c0,2.3-1.3,3.8-4.5,4.9    c3.4,0.7,5.1,2.5,5.1,5.5C233.9,94.7,230.7,97,225.8,97z M253.5,93.1c0,3.1-1.3,4.5-4.2,4.5c-2.2,0-3.5-0.7-4.2-2.4    c-1.3,1.6-3,2.4-5.1,2.4c-3,0-4.8-1.6-4.8-4.4c0-2,1-3.5,2.7-4c0.5-0.2,1.3-0.4,2.1-0.6l0.6-0.2l0.6-0.1l0.7-0.1    c2.4-0.5,3.1-1.1,3.1-2.5c0-1.6-1.4-2.5-3.7-2.5c-0.9,0-1.3,0.1-1.9,0.4c1,0.4,1.5,1,1.5,1.9c0,1.3-1,2.3-2.4,2.3    c-1.5,0-2.7-1.2-2.7-2.8c0-2.7,2.3-4.2,6.7-4.2c5.2,0,7.4,1.5,7.4,5.3v7.3c0,0.8,0.2,1.1,0.6,1.1c0.6,0,0.8-0.4,0.8-1.5v-1.9h2.2    V93.1z M274.4,97h-9.5v-2.7h0.9c0.9,0,1.2-0.4,1.2-1.5v-5.8c0-2.3-0.6-3.2-2.4-3.2c-2.1,0-3.1,1.2-3.1,3.9v5    c0,1.1,0.3,1.5,1.2,1.5h0.8V97h-9.4v-2.7h1.3c0.9,0,1.2-0.4,1.2-1.5v-7.4c0-1.1-0.3-1.5-1.2-1.5h-1.3v-2.7h7.1h0l-0.1,2.4    c1.9-2.2,3.2-2.9,5.5-2.9c3.2,0,5.2,1.7,5.2,4.7v7.4c0,1.1,0.3,1.5,1.2,1.5h1.4V97z M295.1,83.9h-1.3c-1.2,0-1.8,0.2-2.9,1    l-2.6,1.9l4.3,6.1c0.9,1.2,1.2,1.4,1.7,1.4h0.7V97h-9.5v-2.7h0.8c0.6,0,0.9-0.1,0.9-0.4c0-0.1-0.1-0.4-0.2-0.5l-2.5-3.6l-2,1.5    v1.6c0,1.1,0.3,1.5,1.2,1.5h0.5V97H275v-2.7h1.4c0.9,0,1.2-0.4,1.2-1.5V79.2c0-1.1-0.3-1.5-1.2-1.5H275V75h7.5v13.1l4.4-3.2    c0.3-0.2,0.4-0.4,0.4-0.6c0-0.3-0.1-0.4-0.7-0.4H285v-2.7h10.1V83.9z"></path>
		<path class="st0" d="M240.2,92.6c0,1.1,0.7,1.9,1.9,1.9c1.5,0,2.9-1.2,2.9-2.4v-2.4c-1.9,0.6-2.2,0.8-2.7,0.9    C240.6,91.1,240.2,91.5,240.2,92.6z"></path>
	</g>
	<path id="path656" class="st1" d="M50.7,117.2h278.7v-8H50.7L50.7,117.2L50.7,117.2z"></path>
	<g>
		<path class="st0" d="M112.5,124.1c0.6-0.1,1.6-0.2,2.5-0.2c1.4,0,2.3,0.2,3,0.8c0.6,0.4,0.9,1.1,0.9,1.9c0,1-0.7,2-1.8,2.4v0    c1,0.3,2.2,1.1,2.2,2.7c0,0.9-0.4,1.6-0.9,2.2c-0.8,0.7-2,1-3.7,1c-1,0-1.7-0.1-2.2-0.1V124.1z M113.9,128.5h1.3    c1.5,0,2.3-0.8,2.3-1.8c0-1.3-1-1.8-2.4-1.8c-0.6,0-1,0-1.2,0.1V128.5z M113.9,133.7c0.3,0,0.7,0.1,1.2,0.1c1.4,0,2.8-0.5,2.8-2.1    c0-1.5-1.3-2.1-2.8-2.1h-1.2V133.7z"></path>
		<path class="st0" d="M122.9,131.3l-1.1,3.4h-1.4l3.7-10.8h1.7l3.7,10.8h-1.5l-1.2-3.4H122.9z M126.4,130.3l-1.1-3.1    c-0.2-0.7-0.4-1.3-0.6-2h0c-0.2,0.6-0.3,1.3-0.5,2l-1.1,3.1H126.4z"></path>
		<path class="st0" d="M130.9,124.1c0.8-0.1,1.9-0.2,3-0.2c2,0,3.4,0.5,4.4,1.3c1,0.9,1.5,2.1,1.5,3.9c0,1.8-0.5,3.2-1.6,4.2    c-1,1-2.7,1.6-4.8,1.6c-1,0-1.8,0-2.5-0.1V124.1z M132.3,133.6c0.4,0.1,0.9,0.1,1.4,0.1c3,0,4.6-1.7,4.6-4.6    c0-2.5-1.4-4.2-4.4-4.2c-0.7,0-1.3,0.1-1.6,0.1V133.6z"></path>
		<path class="st0" d="M147.2,129.7H143v3.9h4.7v1.2h-6.1v-10.8h5.8v1.2H143v3.4h4.2V129.7z"></path>
		<path class="st0" d="M149.5,134.7v-10.8h1.5l3.5,5.5c0.8,1.3,1.4,2.4,1.9,3.5l0,0c-0.1-1.4-0.2-2.8-0.2-4.4v-4.5h1.3v10.8h-1.4    l-3.4-5.5c-0.8-1.2-1.5-2.4-2-3.6l0,0c0.1,1.4,0.1,2.7,0.1,4.4v4.6H149.5z"></path>
		<path class="st0" d="M163.2,128.7v1h-4v-1H163.2z"></path>
		<path class="st0" d="M166.7,134.7l-2.7-10.8h1.5l1.3,5.5c0.3,1.3,0.6,2.7,0.8,3.7h0c0.2-1.1,0.5-2.4,0.9-3.7l1.4-5.4h1.5l1.3,5.5    c0.3,1.3,0.6,2.6,0.8,3.7h0c0.2-1.2,0.5-2.4,0.9-3.7l1.4-5.4h1.4l-3.1,10.8h-1.5l-1.4-5.6c-0.3-1.4-0.6-2.4-0.7-3.5h0    c-0.2,1.1-0.4,2.1-0.8,3.5l-1.5,5.6H166.7z"></path>
		<path class="st0" d="M179.8,123.9v6.4c0,2.4,1.1,3.4,2.5,3.4c1.6,0,2.6-1.1,2.6-3.4v-6.4h1.4v6.3c0,3.3-1.7,4.7-4.1,4.7    c-2.2,0-3.9-1.3-3.9-4.6v-6.4H179.8z M180.2,122.4c0-0.4,0.4-0.8,0.8-0.8c0.4,0,0.8,0.4,0.8,0.8s-0.3,0.8-0.8,0.8    S180.2,122.8,180.2,122.4z M183.1,122.4c0-0.4,0.3-0.8,0.8-0.8s0.8,0.4,0.8,0.8s-0.3,0.8-0.8,0.8    C183.4,123.2,183.1,122.8,183.1,122.4z"></path>
		<path class="st0" d="M188.8,124.1c0.7-0.1,1.7-0.2,2.7-0.2c1.5,0,2.4,0.3,3.1,0.9c0.5,0.5,0.8,1.2,0.8,2c0,1.4-0.9,2.4-2,2.8v0    c0.8,0.3,1.3,1.1,1.6,2.2c0.4,1.5,0.6,2.5,0.8,3h-1.4c-0.2-0.3-0.4-1.2-0.7-2.6c-0.3-1.5-0.9-2-2.2-2.1h-1.3v4.7h-1.4V124.1z     M190.2,129h1.4c1.5,0,2.4-0.8,2.4-2c0-1.4-1-2-2.5-2c-0.7,0-1.2,0.1-1.4,0.1V129z"></path>
		<path class="st0" d="M199.6,125.1h-3.3v-1.2h8v1.2H201v9.6h-1.4V125.1z"></path>
		<path class="st0" d="M208.1,125.1h-3.3v-1.2h8v1.2h-3.3v9.6h-1.4V125.1z"></path>
		<path class="st0" d="M219.6,129.7h-4.2v3.9h4.7v1.2H214v-10.8h5.8v1.2h-4.4v3.4h4.2V129.7z"></path>
		<path class="st0" d="M231,130c-0.1-1.5-0.2-3.3-0.2-4.7h0c-0.4,1.3-0.8,2.6-1.4,4.1l-1.9,5.2h-1.1l-1.7-5.1    c-0.5-1.5-0.9-2.9-1.2-4.2h0c0,1.3-0.1,3.2-0.2,4.8l-0.3,4.6h-1.3l0.8-10.8h1.8l1.8,5.2c0.4,1.3,0.8,2.5,1.1,3.6h0    c0.3-1.1,0.7-2.3,1.1-3.6l1.9-5.2h1.8l0.7,10.8h-1.4L231,130z"></path>
		<path class="st0" d="M234.8,124.1c0.6-0.1,1.6-0.2,2.5-0.2c1.4,0,2.3,0.2,3,0.8c0.6,0.4,0.9,1.1,0.9,1.9c0,1-0.7,2-1.8,2.4v0    c1,0.3,2.2,1.1,2.2,2.7c0,0.9-0.4,1.6-0.9,2.2c-0.8,0.7-2,1-3.7,1c-1,0-1.7-0.1-2.2-0.1V124.1z M236.2,128.5h1.3    c1.5,0,2.3-0.8,2.3-1.8c0-1.3-1-1.8-2.4-1.8c-0.6,0-1,0-1.2,0.1V128.5z M236.2,133.7c0.3,0,0.7,0.1,1.2,0.1c1.4,0,2.8-0.5,2.8-2.1    c0-1.5-1.3-2.1-2.8-2.1h-1.2V133.7z"></path>
		<path class="st0" d="M249,129.7h-4.2v3.9h4.7v1.2h-6.1v-10.8h5.8v1.2h-4.4v3.4h4.2V129.7z"></path>
		<path class="st0" d="M251.3,124.1c0.7-0.1,1.7-0.2,2.7-0.2c1.5,0,2.4,0.3,3.1,0.9c0.5,0.5,0.8,1.2,0.8,2c0,1.4-0.9,2.4-2,2.8v0    c0.8,0.3,1.3,1.1,1.6,2.2c0.4,1.5,0.6,2.5,0.8,3h-1.4c-0.2-0.3-0.4-1.2-0.7-2.6c-0.3-1.5-0.9-2-2.2-2.1h-1.3v4.7h-1.4V124.1z     M252.7,129h1.4c1.5,0,2.4-0.8,2.4-2c0-1.4-1-2-2.5-2c-0.7,0-1.2,0.1-1.4,0.1V129z"></path>
		<path class="st0" d="M268.2,134.3c-0.6,0.2-1.9,0.6-3.3,0.6c-1.6,0-3-0.4-4-1.4c-0.9-0.9-1.5-2.3-1.5-4c0-3.2,2.2-5.6,5.8-5.6    c1.2,0,2.2,0.3,2.7,0.5l-0.3,1.1c-0.6-0.3-1.3-0.5-2.4-0.5c-2.6,0-4.3,1.6-4.3,4.3c0,2.7,1.6,4.4,4.2,4.4c0.9,0,1.5-0.1,1.9-0.3    v-3.2h-2.2v-1.1h3.6V134.3z"></path>
	</g>
</g>
</svg>
