<?xml version="1.0" encoding="UTF-8"?>
<svg xmlns="http://www.w3.org/2000/svg" xmlns:xlink="http://www.w3.org/1999/xlink" version="1.1" id="Ebene_1" x="0px" y="0px" viewBox="0 0 380 200" style="enable-background:new 0 0 380 200;" xml:space="preserve">
<style type="text/css">
	.st0{fill:url(#path201_00000099655102251811878640000012524591915750601919_);}
	.st1{fill:url(#path225_00000002384082368649256700000000736128895608667306_);}
	.st2{fill:url(#path249_00000181771719614148820950000010876852511021103535_);}
	.st3{fill:url(#path273_00000181054645447426923930000016722069451036625543_);}
</style>
<g id="layer1" transform="translate(-544.27348,-995.30113)">
	<g id="g3651" transform="matrix(2.6667598,0,0,-2.6667598,-401.84366,3177.6898)">
		
			<radialGradient id="path201_00000111172355794448083250000013185268289254319772_" cx="323.9917" cy="745.6725" r="0.5939" gradientTransform="matrix(66.4069 0 0 -66.4069 -21029.5566 50292.2734)" gradientUnits="userSpaceOnUse">
			<stop offset="0" style="stop-color:#FEDF33"></stop>
			<stop offset="0.44" style="stop-color:#FBB809"></stop>
			<stop offset="0.9" style="stop-color:#EE960D"></stop>
			<stop offset="1" style="stop-color:#E17A10"></stop>
		</radialGradient>
		<path id="path201" style="fill:url(#path201_00000111172355794448083250000013185268289254319772_);" d="M482.1,789.2    c-0.3,0-1.4,0-2.6-1.5l0,0c0,0,0,0,0-0.1l0,0c0.3,0.4,0.7,0.7,1.1,1l0,0c0.4,0.2,0.8,0.4,1.2,0.5l0,0c0.3,0,1.2,0,2.2,0l0,0    c0,0,0,0,0,0l0,0l0,0c0,0,0,0,0,0l0,0H482.1z"></path>
		
			<radialGradient id="path225_00000106123209545701862230000003027525699058131903_" cx="324.032" cy="745.8235" r="0.5939" gradientTransform="matrix(66.4557 0 0 -66.4557 -21051.9043 50353.4141)" gradientUnits="userSpaceOnUse">
			<stop offset="0" style="stop-color:#FEDF33"></stop>
			<stop offset="0.44" style="stop-color:#FBB809"></stop>
			<stop offset="0.9" style="stop-color:#EE960D"></stop>
			<stop offset="1" style="stop-color:#E17A10"></stop>
		</radialGradient>
		<path id="path225" style="fill:url(#path225_00000106123209545701862230000003027525699058131903_);" d="M475.1,789.2    C475.1,789.2,475.1,789.2,475.1,789.2L475.1,789.2l-3.8-6.5l-1.2-2l-0.1-0.2l0,0c0,0,0,0,0,0l0,0l3.6-6.2v0    c-0.1,0.1-0.1,0.3-0.2,0.3l0,0c-0.1,0.3-0.2,0.8-0.2,1.3l0,0c0.1,1.2,0.7,2.4,1,2.9l0,0c0.8,1.3,2.2,3.8,2.2,3.8l0,0    c0,0,1.5,2.5,2.2,3.8l0,0c0.3,0.6,1,1.7,2,2.4l0,0c0.4,0.2,0.8,0.4,1.2,0.4l0,0c0.3,0,1.2,0,2.2,0l0,0H475.1z"></path>
		
			<radialGradient id="path249_00000045594611881203352010000008393785790182877627_" cx="324.1427" cy="745.7132" r="0.5939" gradientTransform="matrix(66.4293 0 0 -66.4293 -21061.4844 50315.6523)" gradientUnits="userSpaceOnUse">
			<stop offset="0" style="stop-color:#FEDF33"></stop>
			<stop offset="0.44" style="stop-color:#FBB809"></stop>
			<stop offset="0.9" style="stop-color:#EE960D"></stop>
			<stop offset="1" style="stop-color:#E17A10"></stop>
		</radialGradient>
		<path id="path249" style="fill:url(#path249_00000045594611881203352010000008393785790182877627_);" d="M470,780.3    c0.1-0.1,0.1-0.2,0.2-0.3l0,0L470,780.3z M488,778.5c-0.2-0.3-0.6-0.6-1-0.8l0,0c-1.1-0.5-2.4-0.6-3.1-0.6l0,0h-4.4h-4.4    c-0.6,0-2,0-3.1,0.6l0,0c-0.4,0.2-0.8,0.5-1,0.8l0,0c-0.1,0.2-0.5,0.8-0.9,1.5l0,0l0.9-1.6l3.4-5.9c0,0,0,0,0,0l0,0h10.2    c0,0,0,0,0,0l0,0l4.4,7.7C488.6,779.4,488.2,778.7,488,778.5"></path>
		
			<radialGradient id="path273_00000154408270065751242440000015272885355172883364_" cx="323.9943" cy="745.6713" r="0.5939" gradientTransform="matrix(66.6153 0 0 -66.6153 -21097.252 50447.5625)" gradientUnits="userSpaceOnUse">
			<stop offset="0" style="stop-color:#FEDF33"></stop>
			<stop offset="0.44" style="stop-color:#FBB809"></stop>
			<stop offset="0.9" style="stop-color:#EE960D"></stop>
			<stop offset="1" style="stop-color:#D87301"></stop>
		</radialGradient>
		<path id="path273" style="fill:url(#path273_00000154408270065751242440000015272885355172883364_);" d="M481.9,789.1    c-0.4,0-0.8-0.2-1.2-0.4l0,0c-0.4-0.3-0.8-0.6-1.1-1l0,0c0.4-0.5,0.7-1,0.9-1.4l0,0c0.8-1.3,2.2-3.8,2.2-3.8l0,0    c0,0,1.5-2.5,2.2-3.8l0,0c0.3-0.6,1-1.7,1-2.9l0,0c0-0.5-0.1-0.9-0.2-1.3l0,0c-0.1-0.2-0.5-1-1-1.8l0,0l4.4,7.6c0,0,0,0,0,0l0,0v0    c0,0,0,0,0,0l0,0l-5.1,8.8c0,0,0,0,0,0l0,0C483,789.2,482.2,789.2,481.9,789.1"></path>
		<path id="path177" d="M367.4,784.6c-2.5,0-4.5-2.1-4.5-4.7c0-2.7,2-4.6,4.4-4.6c1.4,0,2.5,0.5,3.3,1.4l-1.2,1.2    c-0.5-0.5-1.1-0.8-2-0.8c-1.4,0-2.4,1.2-2.4,2.8c0,1.5,1,2.8,2.4,2.8c0.7,0,1.3-0.3,1.8-0.8l1.3,1.3    C369.8,784.1,368.7,784.6,367.4,784.6z M376,784.6c-2.7,0-4.7-2.1-4.7-4.7c0-2.6,1.9-4.6,4.6-4.6c2.7,0,4.7,2.1,4.7,4.7    C380.6,782.7,378.7,784.6,376,784.6z M382.7,784.5l-0.9-9h1.9l0.4,4.8c0.1,0.9,0.1,1.9,0.1,1.9h0c0,0,0.2-1,0.5-1.9l1.5-4.9h1.8    l1.5,4.9c0.3,0.9,0.5,1.8,0.5,1.8h0c0,0,0-1,0.1-1.9l0.4-4.8h2l-0.9,9h-2.6l-1.4-4.4c-0.2-0.7-0.4-1.6-0.4-1.6s-0.2,0.9-0.5,1.7    l-1.4,4.4H382.7z M395.3,784.5l-0.9-9h1.9l0.4,4.8c0.1,0.9,0.1,1.9,0.1,1.9h0c0,0,0.2-1,0.5-1.9l1.5-4.9h1.8l1.5,4.9    c0.3,0.9,0.5,1.8,0.5,1.8h0c0,0,0-1,0.1-1.9l0.4-4.8h2l-0.9,9h-2.6l-1.4-4.4c-0.2-0.7-0.4-1.6-0.4-1.6s-0.2,0.9-0.5,1.7l-1.4,4.4    H395.3z M407.2,784.5v-9h5.8v1.7h-3.9v2h3.3v1.7h-3.3v1.9h3.8v1.7H407.2z M415.3,784.5v-9h2v3.3h0.6l1.9-3.3h2.3l-2.2,3.6    c1.2,0.4,1.8,1.3,1.8,2.5c0,1.8-1,2.9-3.7,2.9H415.3z M423.4,784.5v-1.7h3.6l-3.7-5.8v-1.5h6.3v1.7h-3.8l3.7,5.8v1.5H423.4z     M431.6,784.5v-9h3.4c1.6,0,3.4,0.7,3.4,2.6c0,1.2-0.7,1.9-1.9,2.1v0c0.9,0.3,1.5,1,1.5,2c0,1.9-1.7,2.3-3.3,2.3H431.6z     M442.2,784.5l-3.2-9h2l0.6,1.8h3.5l0.6-1.8h2.1l-3.2,9H442.2z M449,784.5v-9h1.8v4.3c0,0.8-0.1,1.6-0.1,1.6s0.4-0.7,0.9-1.4    l3-4.5h1.7v9h-1.8v-4.1c0-0.8,0.1-1.6,0.1-1.6s-0.4,0.7-0.9,1.4l-2.9,4.3H449z M458.6,784.5v-9h1.9v4.2l2.9-4.2h2.4l-3.3,4.8    l3,4.2h-2.3l-2.7-4v4H458.6z M375.9,782.8c1.5,0,2.5-1.2,2.5-2.8c0-1.5-1-2.8-2.5-2.8c-1.5,0-2.5,1.2-2.5,2.8    C373.4,781.5,374.4,782.8,375.9,782.8z M417.3,782.8h0.8c1,0,1.6-0.3,1.6-1.2c0-0.8-0.6-1.2-1.6-1.2h-0.8V782.8z M433.5,782.8h1.1    c0.6,0,1.2-0.2,1.2-0.9c0-0.7-0.5-1-1.2-1h-1.2V782.8z M443.3,782.7c0,0,0.2-0.6,0.4-1.3l0.8-2.4h-2.3l0.8,2.4    C443.2,782.1,443.3,782.7,443.3,782.7z M433.5,779.2h1.4c0.9,0,1.4-0.3,1.4-1c0-0.7-0.4-1-1.4-1h-1.4V779.2z"></path>
	</g>
</g>
</svg>
