<?xml version="1.0" encoding="UTF-8"?>
<svg xmlns="http://www.w3.org/2000/svg" xmlns:xlink="http://www.w3.org/1999/xlink" version="1.1" id="Ebene_1" x="0px" y="0px" viewBox="0 0 380 200" style="enable-background:new 0 0 380 200;" xml:space="preserve">
<style type="text/css">
	.st0{fill:#EA1D25;}
</style>
<g id="MODULE_00000052102790260986651660000017203905554776290488_">
	
		<g id="MODULE_x5F_DESKTOP_x2F_Finanzierungspartner_x5F_Desktop_x5F_1024_x2B__00000004510449719448580670000015309900244825023627_" transform="translate(-609, -253)">
		<g id="Banco_Santander_Logotipo" transform="translate(609, 253)">
			<path id="path6" class="st0" d="M66.5,97.7c-0.1-2.1-0.7-4.3-1.8-6.1l-9.6-16.9c-0.7-1.3-1.3-2.7-1.6-4.1l-0.4,0.7     c-2.4,4.1-2.4,9.4,0,13.5l7.8,13.5c2.4,4.1,2.4,9.4,0,13.5l-0.4,0.7c-0.3-1.4-0.8-2.8-1.6-4.1l-7-12.4l-4.5-8     c-0.7-1.3-1.3-2.7-1.6-4.1l-0.4,0.7c-2.4,4.1-2.4,9.2,0,13.5l0,0l7.8,13.5c2.4,4.1,2.4,9.4,0,13.5l-0.4,0.7     c-0.3-1.4-0.8-2.8-1.6-4.1l-9.7-16.9c-1.3-2.3-1.8-4.8-1.8-7.4c-10.3,2.7-17.5,8.5-17.5,15.2c0,9.4,13.8,16.9,30.9,16.9     s30.9-7.5,30.9-16.9C84,106.2,76.9,100.4,66.5,97.7z M95.7,126.5c0.1-2.4,0.4-4,1.1-6c3.2,1.6,7.5,2.3,10.6,2.3     c5.4,0,8.5-1.7,8.5-5.3c0-3.4-2.3-5-7.6-7.4l-3-1.1c-5.5-2.4-9.2-5.5-9.2-11.7c0-6.7,4.7-10.9,14-10.9c3.8,0,7.3,0.6,10.6,1.7     c-0.1,2.3-0.6,4.1-1.1,5.8c-3.1-1.1-6.9-1.7-9.6-1.7c-5.1,0-7.3,2-7.3,5.1c0,3,2.3,4.8,6.3,6.5l3.1,1.3     c7.3,3.1,10.4,6.5,10.4,12.2c0,6.7-5.1,11.4-14.9,11.4C102.9,128.8,98.9,128.1,95.7,126.5L95.7,126.5z M153.6,98.5v29.3h-5.9     l-0.3-3.6c-1.7,2.6-4.1,4.3-8.2,4.3c-7.6,0-12.8-5.7-12.8-15.5c0-10.2,5.5-16.2,16.2-16.2C146.9,96.9,150.4,97.4,153.6,98.5z      M147.3,121.1v-18.3c-1.3-0.3-2.8-0.3-4.7-0.3c-6.6,0-9.7,4.1-9.7,10.7c0,6,2.4,10.2,8,10.2C143.6,123.2,145.6,122.4,147.3,121.1     z M186.3,108.2v19.6H180v-18.5c0-4.7-1.6-6.8-7.9-6.8c-1.6,0-3.2,0.1-5.1,0.4v24.9h-6.3V98.5c4.1-1,8.6-1.7,11.6-1.7     C183,96.9,186.3,101.1,186.3,108.2z M204.1,123.1c1.8,0,3.7-0.3,4.9-0.9c-0.1,1.7-0.4,3.7-0.7,5.4c-1.7,0.7-3.7,1-5.4,1     c-6.2,0-10.2-2.8-10.2-10V87.8c2-0.7,4.4-1,6.3-1v11.1h10.2c-0.1,2-0.3,3.8-0.6,5.5h-9.6v14.4C199.2,121.5,201,123.1,204.1,123.1     L204.1,123.1z M238.4,98.5v29.3h-5.9l-0.3-3.6c-1.7,2.6-4.1,4.3-8.2,4.3c-7.6,0-12.8-5.7-12.8-15.5c0-10.2,5.5-16.2,16.2-16.2     C231.6,96.9,235,97.4,238.4,98.5L238.4,98.5z M231.9,121.1v-18.3c-1.3-0.3-2.8-0.3-4.7-0.3c-6.6,0-9.7,4.1-9.7,10.7     c0,6,2.4,10.2,8,10.2C228.2,123.2,230.3,122.4,231.9,121.1L231.9,121.1z M271.1,108.2v19.6h-6.5v-18.5c0-4.7-1.6-6.8-7.9-6.8     c-1.6,0-3.2,0.1-5.1,0.4v24.9h-6.3V98.5c4.1-1,8.6-1.7,11.6-1.7C267.5,96.9,271.1,101.1,271.1,108.2L271.1,108.2z M303.4,86.8     v40.9h-5.9l-0.3-3.7c-1.7,2.7-4.1,4.4-8.3,4.4c-7.6,0-12.8-5.7-12.8-15.5c0-10.2,5.5-16.2,16.2-16.2c1.7,0,3.2,0.1,4.8,0.4v-9.7     C299,87,301.2,86.8,303.4,86.8L303.4,86.8z M297,121.1v-18.1c-1.7-0.3-3.4-0.6-5.1-0.6c-6.3,0-9.3,4-9.3,10.7     c0,6,2.4,10.2,8,10.2C293.2,123.2,295.3,122.4,297,121.1z M335.5,115.3h-20.4c0.8,5.3,3.8,7.7,9.6,7.7c3.5,0,7-0.7,10.2-2.3     c-0.3,1.7-0.6,4-1,5.8c-3,1.3-5.9,1.8-9.4,1.8c-10.7,0-15.8-6-15.8-15.9c0-8.7,3.9-15.6,14.1-15.6c9.2,0,13.1,6,13.1,13.4     C335.8,112.2,335.8,113.6,335.5,115.3L335.5,115.3z M315.1,109.9h14.4c0-4.8-2.5-7.7-6.9-7.7     C317.9,102.3,315.5,104.9,315.1,109.9L315.1,109.9z M357.9,97.2c0,2-0.3,4.3-0.6,5.5c-1.6-0.1-3-0.3-4.8-0.3     c-1.6,0-3.1,0.1-4.7,0.3v25h-6.3V98.5c2.7-1,7.3-1.7,10.9-1.7C354.3,96.9,356.5,96.9,357.9,97.2L357.9,97.2z"></path>
		</g>
	</g>
</g>
</svg>
