<?xml version="1.0" encoding="UTF-8"?>
<svg xmlns="http://www.w3.org/2000/svg" xmlns:xlink="http://www.w3.org/1999/xlink" version="1.1" id="Ebene_1" x="0px" y="0px" viewBox="0 0 380 200" style="enable-background:new 0 0 380 200;" xml:space="preserve">
<style type="text/css">
	.st0{fill:#181818;}
	.st1{fill:#FF4A10;}
	.st2{fill:#FFFFFF;}
</style>
<g id="MODULE_00000129891064431402236390000012465945625498713787_">
	
		<g id="MODULE_x5F_DESKTOP_x2F_Finanzierungspartner_x5F_Desktop_x5F_1024_x2B__00000062870419050522688790000005226770107570045341_" transform="translate(-498, -352)">
		<g id="Wüstenrot_Bank_201x_logo" transform="translate(498, 352)">
			<path id="path4455" class="st0" d="M328.6,121.7c-0.6,0.3-1.4,0.5-2.3,0.6c-0.9,0.1-1.8,0.2-2.6,0.2c-2.2,0-3.9-0.5-5.1-1.5     c-1.2-1-1.8-2.4-1.8-4.4v-10.7h-2.7v-4.7h2.7v-6.5h6.4v6.5h4.9v4.7h-4.9v9.3c0,1,0.2,1.7,0.7,2.1c0.5,0.4,1.1,0.6,1.8,0.6     s1.7-0.2,2.8-0.6V121.7z M305.6,111.5c0-1.6-0.4-3-1.1-4c-0.7-1.1-1.9-1.6-3.5-1.6c-0.9,0-1.6,0.1-2.2,0.4     c-0.6,0.3-1,0.7-1.4,1.2c-0.4,0.5-0.6,1.1-0.8,1.8c-0.2,0.7-0.2,1.4-0.2,2.3c0,1.9,0.3,3.4,1,4.4c0.7,1.1,1.9,1.6,3.6,1.6     c0.8,0,1.5-0.2,2.1-0.5c0.6-0.3,1-0.8,1.4-1.3c0.4-0.6,0.6-1.2,0.8-1.9C305.5,113.1,305.6,112.3,305.6,111.5 M312.1,111.5     c0,1.6-0.3,3.1-0.8,4.5c-0.5,1.3-1.3,2.5-2.3,3.5c-1,1-2.1,1.7-3.5,2.2c-1.4,0.5-2.8,0.8-4.5,0.8c-1.7,0-3.2-0.3-4.5-0.8     c-1.3-0.5-2.5-1.3-3.5-2.2c-1-1-1.7-2.1-2.2-3.4c-0.5-1.3-0.8-2.7-0.8-4.3c0-1.6,0.3-3.1,0.8-4.5c0.5-1.4,1.3-2.5,2.2-3.5     c1-1,2.1-1.7,3.5-2.2c1.4-0.5,2.9-0.8,4.6-0.8c1.6,0,3.1,0.3,4.5,0.8c1.4,0.5,2.5,1.3,3.5,2.2c1,1,1.7,2.1,2.3,3.4     C311.8,108.5,312.1,109.9,312.1,111.5 M286.6,100.7c0.5,0,1,0,1.4,0.1c0.4,0.1,0.8,0.1,1.1,0.2v5.6c-0.6-0.2-1.2-0.3-1.8-0.4     c-0.6-0.1-1.1-0.1-1.5-0.1c-0.5,0-1,0.1-1.5,0.2s-0.9,0.4-1.3,0.7c-0.4,0.3-0.7,0.8-0.9,1.4c-0.2,0.6-0.3,1.3-0.3,2.1V122h-6.3     v-20.8h6v2c0.6-0.7,1.3-1.3,2.2-1.8C284.5,100.9,285.5,100.7,286.6,100.7 M264.6,122v-11.6c0-1.7-0.3-2.8-0.9-3.5     c-0.6-0.6-1.5-1-2.7-1c-1.3,0-2.2,0.3-2.8,1c-0.6,0.7-0.9,1.9-0.9,3.6V122h-6.4v-20.8h6v1.9c0.9-0.9,1.9-1.5,2.9-1.8     c1-0.3,2.1-0.5,3.3-0.5c2.9,0,4.9,0.7,6.1,2.1c1.2,1.4,1.8,3.6,1.8,6.5V122H264.6L264.6,122z M237.1,105.4     c-0.7,0-1.2,0.1-1.7,0.3c-0.5,0.2-0.8,0.5-1.1,0.8c-0.3,0.3-0.5,0.7-0.7,1.2c-0.2,0.4-0.3,0.9-0.3,1.4h7.7c0-1.1-0.4-2-1-2.7     C239.3,105.8,238.4,105.4,237.1,105.4 M237.5,100.7c3.1,0,5.5,0.9,7.1,2.7c1.7,1.8,2.5,4.4,2.5,7.8c0,0.4,0,0.7,0,1     c0,0.3-0.1,0.7-0.1,1h-13.8c0.1,1.3,0.5,2.3,1.2,3.1c0.7,0.8,1.8,1.2,3.3,1.2c1.1,0,2-0.2,2.8-0.7s1.4-1,1.9-1.4l3.9,3.9     c-1.4,1.2-2.8,2.1-4.2,2.6c-1.5,0.5-2.9,0.7-4.4,0.7c-1.9,0-3.5-0.3-4.9-0.8c-1.4-0.5-2.5-1.2-3.4-2.2c-0.9-0.9-1.6-2.1-2-3.4     c-0.4-1.3-0.6-2.8-0.6-4.4c0-1.7,0.2-3.2,0.7-4.5c0.5-1.4,1.2-2.5,2.1-3.5c0.9-1,2.1-1.7,3.4-2.3     C234.3,101,235.8,100.7,237.5,100.7 M225.3,121.7c-0.6,0.3-1.4,0.5-2.3,0.6c-0.9,0.1-1.8,0.2-2.6,0.2c-2.2,0-3.9-0.5-5-1.5     c-1.2-1-1.8-2.4-1.8-4.4v-10.7h-2.7v-4.7h2.7v-6.5h6.4v6.5h4.9v4.7h-4.9v9.3c0,1,0.2,1.7,0.7,2.1c0.5,0.4,1.1,0.6,1.8,0.6     c0.7,0,1.7-0.2,2.8-0.6V121.7z M209,115.7c0,1.2-0.2,2.2-0.6,3.1c-0.4,0.9-1,1.6-1.8,2.1c-0.8,0.5-1.7,0.9-2.8,1.2     c-1.1,0.3-2.3,0.4-3.6,0.4c-0.9,0-1.8-0.1-2.8-0.2c-0.9-0.1-1.8-0.3-2.7-0.5c-0.9-0.2-1.7-0.5-2.5-0.8c-0.8-0.3-1.5-0.6-2.1-1     l2.1-4.4c1.1,0.6,2.3,1.1,3.7,1.5c1.4,0.5,2.7,0.7,4,0.7c0.9,0,1.6-0.1,2-0.3c0.4-0.2,0.6-0.6,0.6-1.2c0-0.6-0.3-1-1-1.3     c-0.6-0.3-1.8-0.6-3.4-1c-0.9-0.2-1.7-0.5-2.6-0.8c-0.9-0.3-1.7-0.7-2.4-1.2c-0.7-0.5-1.3-1.1-1.7-1.8c-0.5-0.7-0.7-1.7-0.7-2.9     c0-2,0.8-3.6,2.4-4.8c1.6-1.2,3.8-1.8,6.7-1.8c1.7,0,3.3,0.2,4.9,0.7c1.6,0.5,2.9,1.1,4,1.8l-2.7,4.1c-1.2-0.6-2.3-1.1-3.4-1.4     c-1.1-0.3-2.1-0.5-2.9-0.5c-1.6,0-2.4,0.4-2.4,1.3c0,0.5,0.3,0.9,1,1.2c0.6,0.3,1.7,0.6,3.2,1c1,0.3,2,0.6,2.9,0.9     c0.9,0.3,1.7,0.8,2.4,1.3c0.7,0.5,1.2,1.1,1.7,1.9C208.8,113.7,209,114.6,209,115.7 M182.9,98.9c-1.1,0-2-0.3-2.7-0.9     c-0.7-0.6-1-1.4-1-2.3c0-0.9,0.3-1.7,1-2.3c0.7-0.6,1.6-0.9,2.7-0.9c1,0,1.8,0.3,2.5,0.9c0.7,0.6,1,1.4,1,2.3     c0,0.9-0.3,1.7-1,2.3C184.8,98.6,184,98.9,182.9,98.9 M171.8,98.9c-1.1,0-2-0.3-2.7-0.9c-0.7-0.6-1-1.4-1-2.3     c0-0.9,0.3-1.7,1-2.3c0.7-0.6,1.6-0.9,2.7-0.9c1,0,1.8,0.3,2.5,0.9c0.7,0.6,1,1.4,1,2.3c0,0.9-0.3,1.7-1,2.3     C173.7,98.6,172.8,98.9,171.8,98.9 M180.9,101.2h6.4v12.7c0,3.1-0.9,5.3-2.6,6.7c-1.7,1.4-4.3,2.1-7.6,2.1     c-1.8,0-3.3-0.2-4.6-0.6c-1.3-0.4-2.3-1-3.1-1.7c-0.8-0.7-1.4-1.6-1.7-2.7c-0.3-1-0.5-2.2-0.5-3.5v-13h6.6v12     c0,0.9,0.1,1.6,0.2,2.1c0.1,0.6,0.3,1,0.6,1.3c0.3,0.3,0.6,0.6,1.1,0.7c0.5,0.1,1,0.2,1.7,0.2c1.2,0,2.1-0.3,2.7-0.9     c0.5-0.6,0.8-1.8,0.8-3.5L180.9,101.2L180.9,101.2z M158.5,122H153l-3.3-13.2h-0.1c-0.6,2.1-1.1,4.3-1.6,6.6     c-0.5,2.3-1,4.5-1.6,6.6h-5.6l-6.2-20.8h6.4l2.8,12.2h0.1l3.1-12.2h5.5l3.1,12.2h0.1l2.9-12.2h6.3L158.5,122L158.5,122z"></path>
			<polygon id="path4471" class="st1" points="51.4,67.3 51.4,132.7 116.9,132.7 116.9,67.3    "></polygon>
			<path id="path4467" class="st2" d="M104.6,116.3l-3.4-13.7h-5.9l-3.4,13.8l-3.1-13.8h-6.7L79,116.3l-3.4-13.7h-5.9l-3.4,13.8     l-3.1-13.8h-6.8l5.5,20.1h7.5l3.2-13.5l3.4,13.5h4.9c-0.2-0.4-0.4-0.7-0.5-1.1c-0.5-2.9,3-4.8,3-4.8s-1-0.8-1.3-1.9     c-0.5-2,0.9-3.7,2.7-4c2.3-0.3,3.7,1,4.1,2.5c0.5,2.3-2.1,3.7-2.1,3.7l2.1,2.2c0,0,0.5-0.9,0.7-1.7h2.1c-0.3,1.6-1.3,3.2-1.3,3.2     l1.8,1.8H95l3.2-13.5l3.4,13.5h7.4l5.5-20.1h-6.7L104.6,116.3L104.6,116.3z M83,121c0.3,1.8,2.3,1.7,2.3,1.7s1.4,0,2.4-1.4     l-2.9-3C83.9,118.9,82.8,119.9,83,121 M85.4,115.8c0,0,1.7-0.9,1.4-2.2c-0.1-0.6-0.7-1.2-1.5-1.1c-0.9,0.1-1.3,0.9-1.2,1.5     C84.1,115.1,85.4,115.8,85.4,115.8"></path>
		</g>
	</g>
</g>
</svg>
