<?xml version="1.0" encoding="UTF-8"?>
<svg xmlns="http://www.w3.org/2000/svg" xmlns:xlink="http://www.w3.org/1999/xlink" version="1.1" id="Ebene_1" x="0px" y="0px" viewBox="0 0 380 200" style="enable-background:new 0 0 380 200;" xml:space="preserve">
<style type="text/css">
	.st0{fill-rule:evenodd;clip-rule:evenodd;fill:#BA122B;}
</style>
<g id="MODULE_00000125603610753173409320000003981208589479285404_">
	
		<g id="MODULE_x5F_DESKTOP_x2F_Finanzierungspartner_x5F_Desktop_x5F_1024_x2B__00000041991411613769634700000005876018789745184133_" transform="translate(-112, -353)">
		<g id="Ergo_Versicherungsgruppe_logo" transform="translate(112, 353)">
			<path id="path2554" class="st0" d="M252.7,76.4c-13.2,0-23.8,6.9-23.8,23.4c0,16.5,10.7,23.4,23.8,23.4c13.2,0,23.8-7,23.8-23.4     C276.5,83.3,265.8,76.4,252.7,76.4z M205.5,76.7c-0.6,0-0.9,0.1-0.9,0.1c-23.6,0-22.5,23.4-22.5,23.4c0,21.8,18.4,23.4,23.9,23.4     c6.2,0,10.5-0.6,20.2-1.6c0,0,0-24.4,0-24.4h-19.9v8.7h7.8v7.9c-15.4,3.7-19.1-4.4-19.1-13.7c0-13.9,7.9-14.1,11.3-14.1     c7,0,7.8,5.2,7.8,5.2h12.2C224.9,77.3,209.4,76.6,205.5,76.7z M103.5,77.6v45.1h34.6v-9.5h-22.5v-8.7h20.7v-8.7h-20.7v-8.7h22.5     v-9.5H103.5z M141.5,77.6v45.1h12.1v-16.5h4.3l11.2,16.5H183l-12.1-17.4c9.6-2,9.6-13,9.6-13c0-15.4-16.1-14.8-16.1-14.8H141.5z      M252.7,85.8c8.2,0,10.7,6.3,10.7,14.1c0,7.8-2.6,14-10.7,14c-8.2,0-10.7-6.3-10.7-14C241.9,92.1,244.4,85.8,252.7,85.8z      M153.6,87.2h9.5c0,0,6,0,6.1,5.2c0,6.3-6.1,6.1-6.1,6.1h-9.5V87.2z"></path>
		</g>
	</g>
</g>
</svg>
