<?xml version="1.0" encoding="UTF-8"?>
<svg xmlns="http://www.w3.org/2000/svg" xmlns:xlink="http://www.w3.org/1999/xlink" version="1.1" id="Ebene_1" x="0px" y="0px" viewBox="0 0 380 200" style="enable-background:new 0 0 380 200;" xml:space="preserve">
<style type="text/css">
	.st0{fill-rule:evenodd;clip-rule:evenodd;fill:#091C5A;}
	.st1{fill-rule:evenodd;clip-rule:evenodd;fill:#FFFFFF;}
	.st2{fill-rule:evenodd;clip-rule:evenodd;fill:#FF6600;}
</style>
<g id="MODULE_00000182518023343400868260000013422213638684868253_">
	
		<g id="MODULE_x5F_DESKTOP_x2F_Finanzierungspartner_x5F_Desktop_x5F_1024_x2B__00000150099025953315045640000008163673825760651149_" transform="translate(-854, -352)">
		<g id="ING_Group_N.V._Logo" transform="translate(854, 352)">
			<g id="g11" transform="translate(0, 7)">
				<path id="path13" class="st0" d="M71.2,80.9c1.8,0,3.1,0.4,3.8,1.1c0.9,0.8,1.3,2.2,1.3,4.5v28.6c0,4-0.9,5.7-5.9,5.7h-0.7v1.8      h22.7v-1.7l-0.7,0c-5-0.1-5.8-1.8-5.8-5.7V86.5c0-2.3,0.4-3.7,1.3-4.5c0.8-0.8,2.1-1.1,3.9-1.1h1.4v-1.8H69.7v1.8L71.2,80.9      L71.2,80.9z"></path>
				<path id="path15" class="st0" d="M143.8,108c0,0-0.4-1.8-0.5-2.8V92.2c-0.1-7.6,1-11.4-5.9-11.4v-1.7h15.8v1.7      c-7.1,0-6.2,3.8-6.2,11.4v30.5l-2.3,0L110.6,88c0,0,0.4,1.8,0.4,2.8v21.4c-0.2,7.8,0.8,8.7,6,8.7v1.8h-16.5v-1.8      c5.2,0,6.2-0.7,6.2-9.3v0.5V91l0-3.3c0.2-4.3-1.5-6.8-6.5-6.8v-1.7h15.2L143.8,108L143.8,108z"></path>
				<path id="path17" class="st0" d="M201,78.2h-1.7l-0.1,0.6c-0.1,0.9-0.5,2.3-1.5,2.3c-0.3,0-1-0.1-1.8-0.5      c-3.5-1.5-8.1-2.4-12-2.4c-7.5,0-14.3,2.6-19.1,7.3c-4.5,4.3-6.9,10.3-6.9,16.6c0,6.1,2.5,11.1,7.6,15.4      c5.1,4.2,10.9,6.1,19.2,6.1c6.9,0,10.9-1,17-4.1l1.1-0.6v-11.4c0-4.9,0.6-5.6,4.7-5.8l0.7,0V100h-20v1.7l0.7,0      c4.5,0.2,5.4,1,5.4,5v10.6c-3.4,2.2-5.8,3-8.9,3c-4.6,0-8.7-1.7-11.8-4.7c-3.7-3.6-5.5-8.7-5.5-14.6c0-6.3,1.7-11.7,5.3-15.1      c2.8-2.8,6.6-4.3,10.9-4.3c3.8,0,8.3,1.6,11.4,3.9c2.5,2,3.8,3.9,4.8,7l0.1,0.5h1.7L201,78.2L201,78.2z"></path>
			</g>
			<g id="g19" transform="translate(65, 0)">
				<path id="path21" class="st1" d="M223.7,128.4c1.1-0.2,2.3-0.1,3.2-0.9c3.8,0.6,7.6-0.3,10.5-2.4c1.6-1.2,3-2.7,4.1-4.2      c1-1.4,1.8-2.7,2.3-4.2c0.4-1,0.7-1.9,0.9-3c1.1-4.8,0.5-10.2-1.1-14.7c-0.3-0.8-0.6-1.7-1-2.4c-2-4-4.7-8.4-8.8-10.9      c-2.3-1.4-4.5-3.7-5.8-6c-0.7-0.6-1.4-1.5-2.3-1.6c0.3,0.4,0.5,0.8,0.6,1.3l-0.1,0.1c-1,0-1.8-0.5-2.4-1.1l0.7-0.7      c-0.3-0.1-0.6-0.2-0.9-0.3c-2.8-0.3-5.2,1-7.7,1.6l0,0.1c1.6,0.7,1.9,2.4,2.8,3.5c0.2-0.3,0.6-0.1,0.9-0.1      c0.5,0,0.9,0.3,1.3,0.2c0-0.4-0.2-0.7-0.3-1c0.3-0.1,0.6,0,0.9,0c0.8,0.5,2.1-0.1,2.6,1c-0.9,0.1-1.8,0.2-2.7,0.5      c0.1,0.3,0.4,0.6,0.4,1c-0.7-0.3-1.5-0.5-2.4-0.6l0,0.1c1.1,1.2,2.5,1.9,4,2.4c2.1,0.5,4-0.5,6.1-0.2c5,2.3,9.4,7.5,11.2,12.4      c0.1,0.2,0.2,0.5,0.3,0.7c1.6,4.5,1.9,10,0.3,14.7c-0.8,2-1.8,3.8-3.2,5.4c-0.6,0.7-1.2,1.3-1.8,1.8c-2.1,1.6-4.7,2.3-7.4,1.6      c-0.2-0.1-0.5-0.1-0.5-0.4c0.1-0.4,0.2-0.8,0.3-1.2c0.4-2.2,0.7-4.6,0.5-7c0-0.1,0-0.2,0-0.3c-0.1-3.4-0.8-6.5-2.1-9.5      c-0.8-1.7-1.8-3.6-3-5.2c-1.5-2-3.3-3.7-5.6-4.6c-1.4-0.4-3.2-0.4-4.3,0.7c-0.8,0.7-1.1,1.6-1,2.5c-1.2,0.8-2.6,1.2-4.1,1.3      c-0.4,0-0.7,0.2-1.1,0.2c-0.4,0-0.7,0-1.1,0c-1.8-0.2-3.6-1.2-5-2.2c0-0.7-0.1-1.4-0.1-2.2c-0.8-0.4-1.4-1.2-1.5-2.1l0.1-0.1      c0.5,0.1,0.8,0.4,1.3,0.6c-0.2-1.1-0.4-2.1-0.9-3.1c-0.5-0.2-1-0.4-1.5-0.6c-0.5-0.4-0.9-1-1-1.6c0.5,0.5,1.4,0.3,1.7,0.8      c-0.7-1.9-0.7-4.1-1.8-5.9c-0.5-1.3-2-1.9-3-2.8c-0.4-0.5-0.5-1.1-1.2-1.2c-0.6-0.1-0.6-0.8-0.7-1.2c0.4,0,0.6,0.3,0.9,0.3      c-0.8-2.1-1.5-4.5-3.7-5.9l-0.4,0.2c-0.9,0.1-1.8,0.2-2.6,0.2c0.4-0.6,1.1-0.8,1.6-1c-0.6-0.5-1.1-0.6-1.9-0.7      c-0.5,0.4-1.3,0.7-1.8,0.8l-0.1-0.1c0-0.5-0.1-1.1,0.6-1.2c-0.7-0.3-1.9-0.2-2.7,0c-0.2,0.5-0.8,1-0.8,1.7      c-0.4,0.4-0.7,1-1.2,1.4c0-1.1,0.4-2,0.6-2.9c-0.6,0.2-1.3,0.6-1.9,0.9c-1-0.6-2.1-1.1-3.1-1.6c-0.1,0-0.3-0.1-0.3,0.1      c0.9,0.6,0.6,1.9,0.7,2.8l-0.6-0.5c-0.3-0.7-1.1-1.2-1.2-2c-1,0.2-1.6,0.4-2.5,0.8l-0.1,0.1c0.7,0,1.2,0.5,1.5,1      c-1,0.1-1.9-0.3-2.9-0.4c-0.1-0.1-0.2-0.2-0.3-0.2c-0.5,0.2-0.9,0.5-1.4,0.9c-1,0.9-2,2-2.4,3.2c0.3,0.1,0.7,0,1,0.2      c-0.5,0.3-1,0.9-1.5,1.2c-0.2,0.7-0.2,1.5-0.2,2.3c-0.4,0.6-1,1.1-1.2,1.8c-0.9,2.8-1.1,5.9-1,9c-0.3,0.3-0.7,0.4-0.9,0.6l0,2.8      h0.1c0.1-0.6,0.8-0.9,1.3-1.3h0.1c-0.1,0.6-0.2,1.3-0.2,1.9l-0.8,0.7c-0.8,0.7-0.1,1.8-0.2,2.7c0.1,0.2,0.1,0.6,0.3,0.6      c0.1-0.3,0.4-0.6,0.6-0.9c0.4-0.1,0.7-0.4,1-0.4c-0.2,0.7-0.4,1.4-0.7,2c-0.1,0.1-0.3,0.2-0.4,0.3c-0.1,0.2-0.3,0.3-0.3,0.5      c0.6,3.3,1.6,6.5,2.8,9.6c-0.8,1.3-1.2,2.8-1.9,4.1c-0.1,0.2-0.2,0.4-0.3,0.6c-0.6,1.6-0.8,3.4-1.7,5c-0.3-0.2-0.7-0.4-1-0.5      c-1.5-0.5-3.3-0.2-4.4,1c-1-0.2-2,0-2.8,0.5c-0.6,0.4-1,0.9-1.2,1.5c-0.2,0.4-0.2,0.8-0.2,1.3c-0.6,0.4-1,1.1-1.2,1.8      c-0.3,1.5,0.2,3,1.1,4.2L223.7,128.4L223.7,128.4z"></path>
				<path id="path23" class="st1" d="M214.4,97.3c0,0.4-0.3,0.8,0,1.1c0.3-0.4,0.9-0.4,1.4-0.5c1.3-0.1,2.5,0.3,3.6,0.6      c-0.3-0.5-0.5-1-0.8-1.4c-0.7-0.2-1.6,0.3-1.7-0.7c-0.4-0.3-1-0.1-1.4-0.1C214.9,96.5,214.6,96.9,214.4,97.3L214.4,97.3z"></path>
				<path id="path25" class="st1" d="M171.3,85.3C171.3,85.3,171.3,85.3,171.3,85.3C171.3,85.3,171.3,85.3,171.3,85.3L171.3,85.3z"></path>
				<path id="path27" class="st1" d="M176.4,97.6l0.8-0.8c0.1,0,0.1,0,0.2,0.1l-0.1,1.5c0.4,0.4,0.9,0.5,1.5,0.5      c0-0.4,0.4-0.7,0.6-1.1c0.2-0.3,0.1-0.7,0.4-0.9l0.1,0.1c0.1,0.5,0.1,1,0.3,1.4c0,0.2,0.1,0.5,0.1,0.7c0.6,0,1.2-0.1,1.7-0.4      c0-0.5,0.2-1,0.2-1.4c0.1-0.2-0.2-0.5,0.2-0.5c0.2,0.4,0.5,0.8,0.7,1.3c0.8-0.8,1.2-1.9,1.4-3c-0.2-0.3-0.6-0.3-0.9-0.5      c-2.4-0.8-5.5-0.9-7.8,0.3C175.6,95.8,175.8,96.9,176.4,97.6L176.4,97.6z"></path>
				<path id="path29" class="st1" d="M154,123.6c-0.1,1.1,0,2.1,0.1,3.1c0.2,0.3,0.6,0.7,1,0.8l0.1-0.7c0.2-1-0.4-2,0.2-2.9      c0.4,0.1,0.8,0.3,1.1,0.5c0.2-0.9-0.1-2-1-2.5L154,123.6z"></path>
				<path id="path31" class="st1" d="M157.5,122.1c-0.5,1.6-1,3.6-0.3,5.3c0.4-0.2,0.8-0.5,1.1-0.8c-0.1-1.3-0.3-2.7,0.5-3.8      c0.7,0.2,1.2,0.9,1.4,1.5c0.5-0.6,0.6-1.4,0.4-2.2c0-0.6-0.7-0.5-1-0.7c0.1-0.5,0.1-1.1,0.6-1.4l-1.7,0.2      C158.2,120.8,157.7,121.4,157.5,122.1L157.5,122.1z"></path>
				<path id="path33" class="st1" d="M161,126.9c0.1,0.1,0,0.3,0.1,0.4c0.2-1.2,1.2-1.9,1.7-2.9c0.3-0.3,0.2-0.8,0.6-1.1      c0.6,0,0.9,0.4,1.5,0.4c0.2,0.1-0.1,0.2-0.1,0.4c-0.1,0.9-0.5,1.7-0.4,2.7h0.1c0.7-0.8,1.3-1.6,1.8-2.5l0.1-0.8      c0.1-0.9-0.9-1.5-1.6-1.9l0.6-0.8l-0.8-0.3c-1,0.1-1.9,0.5-2.6,1.3C161.2,123.2,161,125,161,126.9L161,126.9z"></path>
				<path id="path35" class="st1" d="M164.8,118.7c0.3,0.1,0.6-0.2,0.9,0c1.3,0.5,2.7,1,3.6,2l1.2,2.9l0.6-1.8l-0.4-1      c-0.3-0.7-1.2-0.6-1.8-0.7c-0.3-0.3,0-0.6,0.1-0.9c0.3-1-0.9-0.9-1.4-1.3c0-0.6-0.7-0.4-1.1-0.4l-0.1-0.2      c-0.1-0.1-0.3-0.1-0.4,0c0,0-0.1-0.1-0.1-0.1l-0.3,0.1C165.1,117.6,164.8,118.1,164.8,118.7z"></path>
				<path id="path37" class="st1" d="M165.6,115.5c0,0.2,0.2,0.4,0.3,0.5c0.6-0.2,1.2-0.6,2-0.3c0.9,0.8,1.9,1.7,3.1,2.1l0.4-0.1      c0.3,0.1,0.5,0.1,0.7,0.4c0.2,0.4-0.2,0.6-0.4,0.9c0.6,0.5,0.4,1.3,0.8,1.8l1-1.3c-0.2-0.6,0-1.6-0.9-1.6      c-0.3-0.2-0.5-0.5-0.5-0.8c-0.6-0.5-1.4-0.8-2-1.3c-0.5-0.4-0.8-1-1.4-1.1c-0.4-0.2-0.9-0.4-1.4-0.5      C166.3,113.9,166.2,115,165.6,115.5L165.6,115.5z"></path>
				<path id="path39" class="st1" d="M166.9,112.7l0.2,0.3c0.7,0,1.3-0.3,2-0.3c0.5,0.3,1.1,0.3,1.5,0.5c0.4,0.5,0.8,1.1,1.4,1.4      c1.1,0.2,1.8,1.4,2.2,2.3v-0.4c0.2-0.6,0-1.3-0.2-1.8c-0.3-0.3-0.7-0.5-1-0.7c-0.1-0.2,0-0.3,0-0.4c-0.4-0.5-1.1-0.7-1.6-1.1      c-0.7-1.1-2.2-0.8-3.3-1.1L166.9,112.7L166.9,112.7z"></path>
				<path id="path41" class="st1" d="M166.9,102.6c0.1,0.4,0.3,1,0.4,1.4c0.4-0.9,1.2-1.2,1.9-1.9c-0.4-0.3-0.9-0.4-1.3-0.5v0      C167.5,101.9,167,102.2,166.9,102.6L166.9,102.6z"></path>
				<path id="path43" class="st1" d="M169.5,107.1l0.6-0.6c0.6-0.6,1.2-1.4,1.3-2.2c-0.5-0.3-1-0.1-1.5,0.1      C169.7,105.3,169.5,106.2,169.5,107.1z"></path>
				<path id="path45" class="st1" d="M169.9,109.1c1,0.1,1.9,0.2,2.7-0.3l0.8-2.5c-0.3,0-0.5-0.1-0.7,0      C172.2,107.4,171.1,108.5,169.9,109.1z"></path>
				<path id="path47" class="st1" d="M170.2,100.3c0.6,0.9,1.7,1.9,2.8,2.2c-0.1-1.2-1.1-2-1.7-3l0-0.3c-0.4-0.4-0.9-0.6-1.3-0.9      C169.9,99,170.1,99.7,170.2,100.3z"></path>
				<path id="path49" class="st1" d="M173.7,109.2c0.7,0.1,1.6,0,2.2-0.2c1-0.2,1.6-1.3,1.9-2.2h-1.3l-1.4,1.3      C174.7,108.4,174.1,108.8,173.7,109.2L173.7,109.2z"></path>
				<path id="path51" class="st1" d="M173.5,99c0.2,1.1,0.7,2.1,1.3,3l0.2-2.1L173.5,99L173.5,99z"></path>
				<path id="path53" class="st1" d="M178.1,104.4c0.1-0.7-0.2-1.5-0.3-2.2c-0.4-0.3-1-0.2-1.5-0.5      C176.4,102.8,177.3,103.7,178.1,104.4L178.1,104.4z"></path>
				<path id="path55" class="st1" d="M176.9,111.4c0.9-0.3,1.7-0.6,2.6-1c0.5-0.7,1.3-1.4,1.4-2.3c-0.6,0.2-1.2,0-1.8,0.3      c-0.4,0.6-0.6,1.4-1.3,1.9C177.6,110.7,177.1,111.1,176.9,111.4L176.9,111.4z"></path>
				<path id="path57" class="st1" d="M178.2,113.1l1.1,1.4c0.6,0.2,1.3,0.1,1.8-0.2l-0.4-1.2C179.9,113.3,179,113.3,178.2,113.1z"></path>
				<path id="path59" class="st1" d="M180,103.3l0.4,1.8c1-0.8,1.2-1.9,1.2-3.2C181,102.6,180.7,103,180,103.3z"></path>
				<path id="path61" class="st1" d="M182.8,106.6c0,0.3,0.1,0.5,0.2,0.7c1.1,0.4,1.2,1.7,2.2,2.2c0.7,0.3,1.4-0.1,2-0.3      c-0.4-0.5-0.9-0.8-1.4-1.3c-0.3-0.1-0.6-0.3-0.6-0.7L182.8,106.6L182.8,106.6z"></path>
				<path id="path63" class="st1" d="M183.6,113.1c0.5,0.5,1.1,0.8,1.8,1c-0.1-0.2,0.1,0,0.1-0.1l-0.8-1.8c-0.4,0-0.9,0.1-1.3,0.1      C183.5,112.5,183.5,112.8,183.6,113.1L183.6,113.1z"></path>
				<path id="path65" class="st1" d="M185.1,104.6c-0.4-0.9-0.6-2-0.7-3c-0.4,0.5-0.9,0.8-1.3,1.3      C183,103.9,184.5,104.2,185.1,104.6z"></path>
				<path id="path67" class="st1" d="M186.9,103.6c0.5,0.6,1.6,0.4,2.2,0.2c-0.3-0.5-1.3-0.8-1.4-1.3c-0.1-1-0.3-1.9-0.6-2.8      C186.6,101,186,102.4,186.9,103.6L186.9,103.6z"></path>
				<path id="path69" class="st1" d="M187.7,106.6c1.4,1,2.8,2.2,4.8,1.8c0.1-0.1,0.4-0.1,0.4-0.3c-0.6-0.4-1.2-0.6-1.8-1l-0.7-1      h-0.3C189.4,106.4,188.6,106.5,187.7,106.6z"></path>
				<path id="path71" class="st1" d="M187.8,117.8L187.8,117.8c0.9-0.7,1.9-0.9,2.9-1.2c0.3,0.1,0.1,0.4,0.3,0.5      c0.6-0.2,1.3-0.2,2-0.4c0.7,0,1.4,0,2,0.4c0.5,0.6,1.4,0.6,2,1l-0.1-1c-1.3-1.5-3.4-1.6-5.2-1.6l0-0.2c-0.5,0-1,0.1-1.4,0.3      c-0.6,0-1.2,0.3-1.8,0.5C188.2,116.6,188,117.2,187.8,117.8L187.8,117.8z"></path>
				<path id="path73" class="st1" d="M188.9,100.8c0.5,0.7,1.4,1.2,2.3,1.1c-0.5-0.5-1-0.9-1.1-1.6c0.1-1.2-1.2-1.3-1.9-2      C188.5,99.1,188.4,100,188.9,100.8L188.9,100.8z"></path>
				<path id="path75" class="st1" d="M188.8,120.2h0.2c0.7-0.5,1.8-0.1,2.6-0.6c0.4-0.2,0.4,0.3,0.7,0.5c0.7,0.4,0.8,1.7,1.7,1.4      c1.2,0.6,0.9,2,0.9,3l1.1-0.7c-0.1-0.5,0.2-1.2-0.1-1.7c-0.3-0.6-1-0.6-1.4-1.1c0.4-0.7-0.5-1-0.7-1.5l0.1-0.1l1.5,0.2      c0.5,0.3,0.7,0.9,0.8,1.4c1.2,0.2,1.5,1.5,1.9,2.3c0.2-0.6,0.3-1.2,0.6-1.7c0-0.5-0.6-0.5-0.9-0.7c-0.1-0.7-0.4-1.4-1-1.8      c-1.3-0.3-2.4-1-3.9-1l-1.2,0.4c-0.6,0.2-1.3,0-1.8,0.4C189,118.9,188.9,119.7,188.8,120.2L188.8,120.2z"></path>
				<path id="path77" class="st1" d="M189.5,114.5l0.3,0.1c0.6-0.3,1.2-0.6,1.8-0.8c0.9-0.3,1.7,0.8,2.5,0.1      c0.3-0.2,0.5,0.1,0.8,0.3c0.3,0.6,1.1,0.6,1.7,0.7c-0.3-0.8-0.7-1.9-1.7-2c-0.4-0.2-0.9-0.2-1.3-0.4c-1.1-1.2-1.8,1-3,0.4      C190.1,113.5,189.6,113.9,189.5,114.5z"></path>
				<path id="path79" class="st1" d="M189.8,121.3c0.5,0.4,0.9,1,1.6,0.9c0.9,0.4,0.5,1.5,1,2.1l0.5-0.4l0,0l0.1-0.1l0,0      c0.1-0.4-0.1-1.2-0.3-1.6c-0.3-0.2-0.7,0-1-0.2c0-0.4-0.3-0.7-0.6-0.9c-0.2-0.2-0.5,0.1-0.8,0L189.8,121.3L189.8,121.3z"></path>
				<path id="path81" class="st1" d="M191.5,104.4c0.5,0.8,1.4,1.2,2.1,1.8c0.6,0.3,1.4,0.3,2,0.2c-0.6-0.5-1.2-1-1.7-1.6      c-0.2-0.3-0.2-0.6-0.5-0.9C192.8,104,192.1,104,191.5,104.4z"></path>
				<path id="path83" class="st1" d="M192.3,99.4c0.7,0.8,1.7,0.5,2.6,0.5v-0.1l-1.4-1.2C193.1,98.8,192.7,99.2,192.3,99.4      L192.3,99.4z"></path>
				<path id="path85" class="st1" d="M166.4,86.4l0.8,2.5c0-1.4,0.6-2.6,0.5-4l0.6-0.9l-1.3,0.4C166.7,85,166.4,85.6,166.4,86.4      L166.4,86.4z"></path>
				<path id="path87" class="st1" d="M166.9,82.1l1.1-0.6v-1.6c-0.5,0.3-0.7,0.7-1.1,1.1L166.9,82.1z"></path>
				<path id="path89" class="st1" d="M189.8,84.6c-0.3,0.3-0.7,0.4-1,0.5c0.6-1.1,0.9-2.5,0.4-3.8c0.3-0.1,0.7-0.2,0.9-0.3l0,0      l0.8-0.7c1-0.7,0.6-2,1-3c-0.5-0.8-0.7-1.7-1.4-2.4l0,0c-0.6-0.7-1.6-0.6-2.4-1c-1-0.3-1.8,0.4-2.6,0.8      c-0.3,0.1-0.1,0.5-0.5,0.5c-0.2,0.5-0.4,1.1-0.6,1.6c-1.4-0.2-2.9,0-4,0.7c-0.6-0.4-1.3-0.5-2-0.7c-0.5-0.1-1.1,0.1-1.4-0.2      c-0.5-0.6-0.7-1.7-1.6-1.8c-0.3-0.1-0.4-0.5-0.4-0.8c-0.6-0.1-1.1-0.4-1.7-0.5c-0.9-0.4-1.6,0.2-2.3,0.7      c-0.3,0.1-0.6,0.2-0.9,0.3c-0.5,0.8-1,1.6-1.3,2.4c0.1,0.7,0.4,1.3,0.8,1.9c0.3,0.9,1.3,1.6,2.2,2c-0.4,1.4-0.4,3,0,4.4      c0,0,0,0,0,0c0,0,0,0,0,0c-0.1,0-0.3,0-0.4,0h0c0.2,1.3,0.8,2.5,1.9,3.5c0.4,0.1,0.3,0.6,0.4,0.8c0.1,0.1,0.1,0.4,0.1,0.5      c-2.2-0.1-4.2,0.5-5.9,1.5c-0.5,0.2-0.3,0.8-0.3,1.3c1.2-0.8,2.6-1.4,4.1-1.7c0.6,0,1.4-0.2,2,0l0.1,1.2      c-1.7,0.9-3.5,1.4-4.9,2.8c0,0.4-0.1,0.9,0.1,1.3l1.3-1c1.2-0.9,2.5-1.7,4-2.2c0.4,0.4,0.8,0.9,1.3,1.2c0.9-0.5,1.8-0.9,2.8-1.2      c0.5-0.3,1.4,0,1.7-0.6l0.2-1.3c0,0-0.1-0.1-0.1-0.1c-0.7-0.4-1.1-1-1-1.8c-0.2,0.1-0.5,0.2-0.7,0.2c-0.2-0.1-0.4-0.1-0.5-0.3      c0-0.3-0.2-0.7,0.1-0.9c0.9-0.6,2.1-0.6,3.3-0.5c0.9,0.1,2.1,0.1,2.4,1.1c0,0.3,0,0.6-0.3,0.8c-0.3,0.2-0.7,0-0.9-0.1      c-0.2,0.7-0.6,1.4-1.4,1.7l0.1,0.8c0.1,0.4,0.1,1,0.7,0.8c1.3,0.3,2.5,1,3.7,1.7c0.4-0.4,0.7-0.8,1-1.2c2.1,0.7,3.9,2.2,5.6,3.7      l0.1-1.2c-1.6-1.4-3.5-2.4-5.3-3.2c0.1-0.4,0.2-0.7,0.2-1.1c2.2,0.1,4.4,0.8,6.2,1.9l0-1c-1.9-1-4.1-1.7-6.4-1.7      c-0.1-0.1-0.1-0.3-0.1-0.4c1.1-0.2,1.9-1.3,2.2-2.3c0.6-0.6,1.4-1.4,1.2-2.3c0-0.1,0.1-0.2,0.1-0.2      C189.8,85.1,189.9,84.8,189.8,84.6L189.8,84.6z"></path>
				<path id="path91" class="st1" d="M191.7,88.2l1.2-0.4l0.1-0.6c0.3-0.9-0.4-1.6-0.7-2.4L191.7,88.2z"></path>
				<path id="path93" class="st1" d="M194.7,92.5c0.5,0.6,1.1,1.5,2.1,1.3c-0.1-0.4-0.3-0.7-0.4-1.1c-0.3-0.3-0.3-1.1-0.8-0.8      c-0.4-0.2-0.5-0.7-0.7-1C194.6,91.4,194.7,92,194.7,92.5L194.7,92.5z"></path>
				<path id="path95" class="st1" d="M194.9,96.6c0.2,0.3,0.3,0.7,0.5,0.9c0.4,0.2,0.9,0.2,1.4,0.2c0.4-0.1,0.7,0.4,1.1,0.1      c-0.5-0.3-0.8-0.9-1.3-1.3C196,96.1,195.4,96.5,194.9,96.6L194.9,96.6z"></path>
				<path id="path97" class="st1" d="M195.6,103c1,0.6,2.2,1.1,3.5,0.9c0.1-0.1,0.4-0.1,0.4-0.2c-0.8-0.3-1.6-1.1-2.5-1.2      c-0.5-0.7-1.1,0.2-1.7,0.1C195.4,102.8,195.5,102.9,195.6,103z"></path>
				<path id="path99" class="st1" d="M198.5,115.2l0.2,0.4c0.2,1.4,1.1,2.8,0.6,4.3c0.4,0.3,0.6,0.8,0.8,1.2h0.1      c0.3-1.2,0.1-2.4-0.1-3.7C200.3,116.4,199.2,115.8,198.5,115.2L198.5,115.2z"></path>
				<path id="path101" class="st1" d="M198.8,101.1c0.7,0.6,1.9,0.6,2.7,0.3c-0.5-0.3-1.1-0.6-1.6-1L198.8,101.1L198.8,101.1z"></path>
				<path id="path103" class="st1" d="M202.3,105.3c-0.1,0.6,0.3,1.1,0.7,1.4c0.2-0.3,0.4-0.6,0.4-1c-0.1-0.6-0.5-1.1-1-1.5      C202.3,104.5,202.2,104.9,202.3,105.3z"></path>
				<path id="path105" class="st1" d="M202.3,111.6c-0.1,0.6,0.6,0.7,0.9,1.1c0.3,0.3-0.2,0.5-0.2,0.8c0.5,0.7,0.8,1.5,0.8,2.4      c0.2-0.8,0.5-1.6,0.7-2.5c-0.1-0.6-1-0.5-0.9-1.2c0.3-0.7-0.1-1.4-0.2-2c-0.1-0.1-0.2-0.3-0.3-0.2      C202.9,110.5,202.3,110.9,202.3,111.6L202.3,111.6z"></path>
				<path id="path107" class="st1" d="M204.2,108.3l0.7,1.4c0.3,0,0.5-0.3,0.8-0.6c0.2-0.6-0.3-1-0.5-1.4c-0.1-0.3,0-0.8-0.2-1.1      c-0.2-0.1-0.4-0.3-0.6-0.2L204.2,108.3z"></path>
				<path id="path109" class="st1" d="M205.2,104.7c0.6,0.3,1.2,0.8,1.5,1.5c0.5,1.4,1.3,2.7,1.9,4.1c0.2,1,0.4,1.8,0.6,2.7      c0.1,0.2,0,0.7,0.4,0.7c0.1-1.1,0.3-2.1,0.3-3.2c-0.4-0.5-0.8-0.6-1.3-0.9v-0.1c0.1-0.2,0.3-0.5,0.6-0.5      c0.1-0.1,0.5-0.3,0.3-0.5c-0.7-0.7-0.7-2-1.9-2.2c-0.4-0.2-0.5-0.6-0.5-1C206.7,104.8,205.9,104.7,205.2,104.7L205.2,104.7z"></path>
				<path id="path111" class="st1" d="M205.8,112.2c0.7,0.6,0.5,1.6,0.4,2.5c-0.1,0.5,0.6,0.2,0.8,0.5c0.4,0.6,0.2,1.6,0,2.3      c0.4-0.6,0.8-1.1,1.1-1.7c0-0.2,0.3-0.3,0.3-0.6c0.1-0.4-0.4-0.2-0.5-0.3c-0.2,0-0.4-0.2-0.3-0.4c0.4-0.7,0-1.5-0.1-2.2      c-0.2-0.6,0.1-1.3-0.2-1.8C206.9,111,205.5,111.1,205.8,112.2L205.8,112.2z"></path>
				<path id="path113" class="st1" d="M207.2,102.3c1.3,1.2,2.2,2.5,3.5,3.7c0-0.5,0-1-0.1-1.6c-0.2-0.4-0.6-0.6-0.9-0.9      C208.7,103.4,208.2,102.1,207.2,102.3L207.2,102.3z"></path>
				<path id="path115" class="st1" d="M210.4,108.9c0,0.1,0.1,0.2,0.1,0.4c0.5,0.9,1.1,1.8,1.5,2.8c-0.1-1,0.6-2.3-0.3-3.1      c-0.1-0.3-0.5-0.2-0.8-0.2L210.4,108.9L210.4,108.9z"></path>
				<path id="path117" class="st1" d="M213.8,119c0.4,0.2,0.9-0.1,1.3-0.4c0.4-0.1,0.6,0.1,0.9,0.3c0.1,0.2,0,0.4,0,0.6      c0.8,0.2,1.7,0.5,2.4,1l0.2-0.2c0.1-0.6-0.4-1-0.9-1.4c-0.3-0.2-0.7-0.1-0.9-0.3c0.1-0.2,0.1-0.6,0.1-0.8      c-0.5,0-0.8-0.1-1.1-0.4c-0.2-0.1-0.5-0.3-0.6,0C214.6,118,214.5,118.7,213.8,119L213.8,119z"></path>
				<path id="path119" class="st1" d="M214.8,101.6c0.4-0.1,0.7-0.2,1-0.4c0.9-0.8,2.3-0.3,3.4-0.3c-0.2-0.4-0.5-0.7-0.8-1.1      c-0.4-0.2-0.8-0.3-1.2-0.3c-1-0.6-1.6,0.4-2.3,0.8C214.7,100.7,214.6,101.3,214.8,101.6z"></path>
				<path id="path121" class="st1" d="M214.8,104.5C214.8,104.4,214.8,104.4,214.8,104.5c0.2,0,0,0.3,0.2,0.3c0.4-0.2,0.7-0.4,1-0.7      c0.9,0,1.5-0.9,2.4-0.9c1.6,0.3,3.1,0.6,4.4,1.3c-0.1-0.9-0.9-1.7-1.7-2.1c-0.5-0.2-0.8,0.1-1.1,0.3c-0.9,0.6-0.5-0.8-1.1-0.9      c-0.9,0.3-1.7,0.6-2.7,0.5c-0.6,0.2-1,0.7-1.6,0.7C214.7,103.5,214.7,104.1,214.8,104.5L214.8,104.5z"></path>
				<path id="path123" class="st1" d="M215.5,107.6c0.3,0.3,0.8,0.2,1.2,0.3l1.2-0.5c0-0.2-0.4-0.3-0.3-0.5c0.3-0.4,0.8-0.1,1.2-0.3      c0.6-0.1,1.2-0.7,1.8-0.2c0,0.1,0,0.2,0,0.2c-0.2,0.4,0.1,0.7,0.5,0.9c0.7,0.1,1.3,0.7,2,0.5c-0.1-0.6-0.2-1.1-0.4-1.6      c-0.6-0.1-1-0.6-1.5-0.8c-0.2,0.2-0.5,0.4-0.8,0.4c-1.1-0.2-2.4-0.9-3.5-0.2c-0.4,0.5-1.1,0.3-1.6,0.5      C215.3,106.7,215.4,107.1,215.5,107.6L215.5,107.6z"></path>
				<path id="path125" class="st1" d="M216,115.8c-0.1,0.2-0.3,0.6,0.1,0.7c0.9,0,2.1-0.4,2.8,0.3c0.2,0.2,0.1,0.6,0.1,0.8l1.2,1      c0.1-0.6,0.3-1.1,0.3-1.7c-0.1-0.4-0.3-0.9-0.7-1.2c-0.8,0-1.2-0.9-2.1-0.8c-0.4-0.1-0.8,0.3-1.3,0.3      C216.2,115.3,216.1,115.6,216,115.8L216,115.8z"></path>
				<path id="path127" class="st1" d="M216.3,109.3c0.2,0.4,0.4,1,0.7,1c0.8-0.4,2-0.6,3-0.2c0.3,0.1,0.3,0.4,0.2,0.6      c0.5,0.3,1.1,0.5,1.6,0.8l-0.1-0.8c0-0.9-1.2-1-1.3-1.9c-0.9-0.3-2-0.4-3-0.2c-0.3,0.3-0.8,0.2-1.2,0.3      C216.2,109.1,216.3,109.2,216.3,109.3L216.3,109.3z"></path>
				<path id="path129" class="st1" d="M216.5,113.7c0.5-0.2,0.9-0.7,1.5-0.8c0.9,0,1.7,0.4,2.3,1.1c0.3,0.2,0.3,0.8,0.7,0.8      c-0.1-0.7,0.1-1.3,0.1-2c-0.6-1-2.1-0.2-2.6-1.4l-1,0.1c-0.7,0.2-0.5,1-0.7,1.6C216.7,113.4,216.5,113.5,216.5,113.7      L216.5,113.7z"></path>
				<path id="path131" class="st1" d="M221.7,119.8c0.4,0.9,1.4,1.5,1.5,2.5c0.2-0.3,0.4-0.6,0.5-0.9c0-0.3-0.3-0.3-0.5-0.5      c-0.1-0.4,0.1-0.7,0.1-1c-0.2-0.5-0.6-1-1.1-1.3L221.7,119.8z"></path>
				<path id="path133" class="st1" d="M223.4,117.6l1,1.4c0.4-0.7,0.4-1.7,0.3-2.5c-0.1-0.2-0.3-0.4-0.5-0.3      C223.8,116.6,223.8,117.2,223.4,117.6L223.4,117.6z"></path>
				<path id="path135" class="st1" d="M219.3,79.7c0.4,0.2,0.7,0.3,1.2,0.4c0.3-0.2,0.7-0.3,1-0.2c0.5,0.3,1.2-0.1,1.8,0      c-0.5-0.5-1.1-0.8-1.8-1.1C220.7,79,220.1,79.5,219.3,79.7L219.3,79.7z"></path>
				<path id="path137" class="st1" d="M224.8,81c0.7,0.1,1.3,0.7,1.8,1.3c0.6,0.1,1.1,0.5,1.5,1l-0.2-0.7c-0.2-0.7-0.6-1.3-1.1-1.9      C226.1,80.7,225.4,80.8,224.8,81z"></path>
				<path id="path139" class="st2" d="M172.2,75l0.4,0c1.1,0.5,2.9,0.8,3,2.4c-1.1,0.4-2.2,1-3.1,1.9c-0.7-0.7-2-0.3-2.3-1.5      C170.5,76.7,170.9,75.3,172.2,75L172.2,75z"></path>
				<path id="path141" class="st2" d="M173.3,82c1.3-0.1,2.5,0.1,3.8,0c0.3,0.1,0.7,0.4,0.8,0.7c0,1.5-0.5,2.9-0.6,4.5      c-0.6,0.2-1.1,0.7-1.3,1.3c-0.5,0.2-1,0.5-1.5,0.7c-0.2-0.5-0.2-1.2,0.2-1.6c0.5-0.8,2-0.6,1.9-1.8c0.4-0.6,0-1.3,0-1.9      c-0.1-0.5-0.3,0.2-0.5,0.1c-0.5,0.1-0.9,0.1-1.3-0.1c-0.3-0.3-0.7-0.6-0.7-1c-0.4-0.2-0.9-0.5-1.1-0.9L173.3,82L173.3,82z"></path>
				<path id="path143" class="st2" d="M174.8,91c0.6,0.1,1.2-0.2,1.8,0.1c-0.1,0.2-0.4,0.3-0.6,0.3l-0.9,0.4      C174.6,91.8,174.8,91.2,174.8,91L174.8,91z"></path>
				<path id="path145" class="st2" d="M177.3,79.4c0.6-0.2,1.3-0.6,1.9-0.4c-0.5,0.5-0.8,1.1-1.2,1.6l-1.9,0      C176.3,80.1,176.8,79.7,177.3,79.4L177.3,79.4z"></path>
				<path id="path147" class="st2" d="M182.9,79c0.8-0.1,0.8,0.9,1.5,0.9c0.1,0.2,0.3,0.3,0.2,0.6c-0.4,0.2-1,0.1-1.5,0.2      c-0.6-0.3-0.2-1.4-1.2-1.4c-0.1-0.1-0.2-0.2,0-0.3C182.2,78.9,182.6,79,182.9,79L182.9,79z"></path>
				<path id="path149" class="st2" d="M182.4,82.7c0.4-0.5,0.9-0.5,1.4-0.6l3.7,0.1c0.2,0.1-0.1,0.3-0.1,0.4      c-0.2,0.2-0.6,0.3-0.7,0.5c-0.5,0-0.4,0.6-0.8,0.8c-0.5,0.5-1.3,0.3-1.9,0.2c-0.2-0.2-0.5-0.4-0.5-0.6l-0.2,0.2      c0.2,0.8,0.2,1.6,0.3,2.4l0.9,0.6c0,1.3,1.5,0.9,2.2,1.6c-0.2,0.5-0.5,0.8-0.8,1.2c-0.5-0.5-1.1-0.8-1.8-1.1      c-0.1-0.7-0.9-1.2-1.4-1.6c-0.1-1.4-0.2-2.7-0.4-4.1L182.4,82.7L182.4,82.7z"></path>
				<path id="path151" class="st2" d="M183.8,91.2h1.7l-0.2,0.9l-1.7-0.7C183.5,91.3,183.7,91.2,183.8,91.2L183.8,91.2z"></path>
				<path id="path153" class="st2" d="M186.8,75.6l1.3-0.4c0.7,0.3,1.4,0.7,2.1,1.2c0.5,0.9,0.4,2.2,0.2,3.3c-0.4,0.4-1.2,0-1.5,0.7      h-0.1c-0.5-1.3-1.8-2.5-3-3.1C185.9,76.6,186.1,76,186.8,75.6L186.8,75.6z"></path>
				<path id="path155" class="st1" d="M216.2,128.3h7.5c1.1-0.2,2.3-0.1,3.2-0.9c3.8,0.6,7.6-0.3,10.5-2.4c1.6-1.2,3-2.7,4.1-4.2      c1-1.4,1.8-2.7,2.3-4.2c0.4-1,0.7-1.9,0.9-3c1.1-4.8,0.5-10.2-1.1-14.7c-0.3-0.8-0.6-1.7-1-2.4c-2-4-4.7-8.4-8.8-10.9      c-2.3-1.4-4.5-3.7-5.8-6c-0.7-0.6-1.4-1.5-2.3-1.6c0.3,0.4,0.5,0.8,0.6,1.3l-0.1,0.1c-1,0-1.8-0.5-2.4-1.1l0.7-0.7      c-0.3-0.1-0.6-0.2-0.9-0.3c-2.8-0.3-5.2,1-7.7,1.6l0,0.1c1.5,0.7,1.9,2.4,2.8,3.5c0.2-0.3,0.6-0.1,0.9-0.1      c0.5,0,0.9,0.3,1.3,0.2c0-0.4-0.2-0.7-0.3-1c0.3-0.1,0.6,0,0.9,0c0.8,0.5,2.1-0.1,2.6,1c-0.9,0.1-1.8,0.2-2.7,0.5      c0.1,0.3,0.4,0.6,0.4,1c-0.7-0.3-1.5-0.5-2.4-0.6l0,0.1c1.1,1.2,2.5,1.9,4,2.4c2.1,0.5,4-0.5,6.1-0.2c5.1,2.3,9.4,7.5,11.2,12.4      c0.1,0.2,0.2,0.5,0.3,0.7c1.6,4.5,1.9,10,0.3,14.7c-0.8,2-1.8,3.8-3.2,5.4c-0.6,0.7-1.2,1.3-1.8,1.8c-2.1,1.6-4.7,2.3-7.4,1.6      c-0.2-0.1-0.5-0.1-0.5-0.4c0.1-0.4,0.2-0.8,0.3-1.2c0.4-2.3,0.7-4.6,0.5-7c0-0.1,0-0.2,0-0.3c-0.1-3.4-0.8-6.5-2.1-9.5      c-0.8-1.7-1.8-3.6-3-5.2c-1.5-2-3.3-3.7-5.6-4.6c-1.4-0.4-3.2-0.4-4.3,0.7c-0.8,0.7-1.1,1.6-1,2.5c-1.2,0.8-2.6,1.2-4.1,1.3      c-0.4,0-0.7,0.2-1.1,0.2c-0.4,0-0.7,0-1.1,0c-1.8-0.2-3.6-1.2-5-2.2c0-0.7-0.1-1.4-0.1-2.2c-0.8-0.4-1.4-1.2-1.5-2.1l0.1-0.1      c0.5,0.1,0.8,0.4,1.3,0.6c-0.2-1.1-0.4-2.1-0.9-3.1c-0.5-0.2-1-0.4-1.5-0.6c-0.5-0.4-0.9-1-1-1.6c0.5,0.5,1.4,0.3,1.7,0.8      c-0.7-1.9-0.7-4.1-1.8-5.9c-0.5-1.3-2-1.9-3-2.9c-0.4-0.5-0.5-1.1-1.2-1.2c-0.6-0.1-0.6-0.8-0.7-1.2c0.4,0,0.6,0.3,0.9,0.3      c-0.8-2.1-1.5-4.5-3.8-5.9L190,72c-0.9,0.1-1.8,0.2-2.6,0.2c0.4-0.6,1.1-0.8,1.6-1c-0.6-0.5-1.1-0.6-1.9-0.7      c-0.5,0.4-1.3,0.7-1.8,0.8l-0.1-0.1c0-0.5-0.1-1.1,0.6-1.2c-0.7-0.3-1.9-0.2-2.7,0c-0.2,0.5-0.8,1-0.8,1.7      c-0.4,0.4-0.7,1-1.2,1.4c0-1.1,0.4-2,0.6-2.9c-0.6,0.2-1.3,0.6-1.9,0.9c-1-0.6-2.1-1.1-3.1-1.6c-0.1,0-0.3-0.1-0.3,0.1      c0.9,0.7,0.6,1.9,0.7,2.8l-0.6-0.5c-0.3-0.7-1.1-1.2-1.2-2c-1,0.2-1.6,0.4-2.5,0.8l-0.1,0.1c0.7,0,1.2,0.5,1.6,1      c-1,0.1-1.9-0.3-2.9-0.4c-0.1-0.1-0.2-0.2-0.3-0.2c-0.5,0.2-0.9,0.5-1.4,0.9c-1,0.9-2,2-2.4,3.2c0.3,0.1,0.7,0,1,0.2      c-0.5,0.3-1,0.9-1.5,1.2c-0.2,0.7-0.2,1.5-0.2,2.3c-0.4,0.6-1,1.1-1.2,1.8c-0.9,2.8-1.1,5.9-1,9c-0.3,0.3-0.7,0.4-0.9,0.6l0,2.8      h0.1c0.1-0.6,0.8-0.9,1.3-1.3h0.1c-0.1,0.6-0.2,1.3-0.2,1.9l-0.8,0.7c-0.8,0.7-0.1,1.8-0.2,2.7c0.1,0.2,0.1,0.6,0.3,0.6      c0.1-0.3,0.4-0.6,0.6-0.9c0.4-0.1,0.7-0.4,1-0.4c-0.2,0.7-0.4,1.4-0.7,2c-0.1,0.1-0.3,0.2-0.4,0.3c-0.1,0.2-0.3,0.3-0.3,0.5      c0.6,3.3,1.6,6.5,2.8,9.6c-0.8,1.3-1.2,2.8-1.9,4.1c-0.1,0.2-0.2,0.4-0.3,0.6c-0.6,1.6-0.8,3.4-1.7,5c-0.3-0.2-0.7-0.4-1-0.5      c-1.5-0.5-3.3-0.2-4.4,1c-1-0.2-2,0-2.8,0.5c-0.6,0.4-1,0.9-1.2,1.5c-0.2,0.4-0.2,0.8-0.2,1.3c-0.6,0.4-1,1.1-1.2,1.8      c-0.3,1.5,0.2,3.1,1.1,4.2L216.2,128.3L216.2,128.3z"></path>
				<path id="path157" class="st2" d="M243.7,98.8c-0.3-0.8-0.6-1.7-1-2.4c-2-4-4.7-8.4-8.8-10.9c-2.3-1.4-4.5-3.7-5.8-6      c-0.7-0.6-1.4-1.5-2.3-1.6c0.3,0.4,0.5,0.8,0.6,1.3l-0.1,0.1c-1,0-1.8-0.5-2.4-1.1l0.7-0.7c-0.3-0.1-0.6-0.2-0.9-0.3      c-2.8-0.3-5.2,1-7.7,1.6l0,0.1c1.5,0.7,1.9,2.4,2.8,3.5c0.2-0.3,0.6-0.1,0.9-0.1c0.5,0,0.9,0.3,1.3,0.2c0-0.4-0.2-0.7-0.3-1      c0.3-0.1,0.6,0,0.9,0c0.8,0.5,2.1-0.1,2.6,1c-0.9,0.1-1.8,0.2-2.7,0.5c0.1,0.3,0.4,0.6,0.4,1c-0.7-0.3-1.5-0.5-2.4-0.6l0,0.1      c1.1,1.2,2.5,1.9,4,2.4c2.1,0.5,4-0.5,6.1-0.2c5.1,2.3,9.4,7.5,11.2,12.4c0.1,0.2,0.2,0.5,0.3,0.7c1.6,4.5,1.9,10,0.3,14.7      c-0.8,2-1.8,3.8-3.2,5.4c-0.6,0.7-1.2,1.3-1.8,1.8c-2.1,1.6-4.7,2.3-7.4,1.6c-0.2-0.1-0.5-0.1-0.5-0.4c0.1-0.4,0.2-0.8,0.3-1.2      c0.4-2.3,0.7-4.6,0.5-7c0-0.1,0-0.2,0-0.3c-0.1-3.4-0.8-6.5-2.1-9.5c-0.8-1.7-1.8-3.6-3-5.2c-1.5-2-3.3-3.7-5.6-4.6      c-1.4-0.4-3.2-0.4-4.3,0.7c-0.8,0.7-1.1,1.6-1,2.5c-1.2,0.8-2.6,1.2-4.1,1.3c-0.4,0-0.7,0.2-1.1,0.2c-0.4,0-0.7,0-1.1,0      c-1.8-0.2-3.6-1.2-5-2.2c0-0.7-0.1-1.4-0.1-2.2c-0.8-0.4-1.4-1.2-1.5-2.1l0.1-0.1c0.5,0.1,0.8,0.4,1.3,0.6      c-0.2-1.1-0.4-2.1-0.9-3.1c-0.5-0.2-1-0.4-1.5-0.6c-0.5-0.4-0.9-1-1-1.6c0.5,0.5,1.4,0.3,1.7,0.8c-0.7-1.9-0.7-4.1-1.8-5.9      c-0.5-1.3-2-1.9-3-2.9c-0.4-0.5-0.5-1.1-1.2-1.2c-0.6-0.1-0.6-0.8-0.7-1.2c0.4,0,0.6,0.3,0.9,0.3c-0.8-2.1-1.5-4.5-3.8-5.9      L190,72c-0.9,0.1-1.8,0.2-2.6,0.2c0.4-0.6,1.1-0.8,1.6-1c-0.6-0.5-1.1-0.6-1.9-0.7c-0.5,0.4-1.3,0.7-1.8,0.8l-0.1-0.1      c0-0.5-0.1-1.1,0.6-1.2c-0.7-0.3-1.9-0.2-2.7,0c-0.2,0.5-0.8,1-0.8,1.7c-0.4,0.4-0.7,1-1.2,1.4c0-1.1,0.4-2,0.6-2.9      c-0.6,0.2-1.3,0.6-1.9,0.9c-1-0.6-2.1-1.1-3.1-1.6c-0.1,0-0.3-0.1-0.3,0.1c0.9,0.7,0.6,1.9,0.7,2.8l-0.6-0.5      c-0.3-0.7-1.1-1.2-1.2-2c-1,0.2-1.6,0.4-2.5,0.8l-0.1,0.1c0.7,0,1.2,0.5,1.6,1c-1,0.1-1.9-0.3-2.9-0.4c-0.1-0.1-0.2-0.2-0.3-0.2      c-0.5,0.2-0.9,0.5-1.4,0.9c-1,0.9-2,2-2.4,3.2c0.3,0.1,0.7,0,1,0.2c-0.5,0.3-1,0.9-1.5,1.2c-0.2,0.7-0.2,1.5-0.2,2.3      c-0.4,0.6-1,1.1-1.2,1.8c-0.9,2.8-1.1,5.9-1,9c-0.3,0.3-0.7,0.4-0.9,0.6l0,2.8h0.1c0.1-0.6,0.8-0.9,1.3-1.3h0.1      c-0.1,0.6-0.2,1.3-0.2,1.9l-0.8,0.7c-0.8,0.7-0.1,1.8-0.2,2.7c0.1,0.2,0.1,0.6,0.3,0.6c0.1-0.3,0.4-0.6,0.6-0.9      c0.4-0.1,0.7-0.4,1-0.4c-0.2,0.7-0.4,1.4-0.7,2c-0.1,0.1-0.3,0.2-0.4,0.3c-0.1,0.2-0.3,0.3-0.3,0.5c0.6,3.3,1.6,6.5,2.8,9.6      c-0.8,1.3-1.2,2.8-1.9,4.1c-0.1,0.2-0.2,0.4-0.3,0.6c-0.6,1.6-0.8,3.4-1.7,5c-0.3-0.2-0.7-0.4-1-0.5c-1.5-0.5-3.3-0.2-4.4,1      c-1-0.2-2,0-2.8,0.5c-0.6,0.4-1,0.9-1.2,1.5c-0.2,0.4-0.2,0.8-0.2,1.3c-0.6,0.4-1,1.1-1.2,1.8c-0.3,1.5,0.2,3.1,1.1,4.2h24.9      c-0.4-0.4-0.7-1-1-1.5c-0.5-0.8-0.2-1.9-0.2-2.8c0.5-1,1-2,1.6-3c0.1-0.2,0.2-0.4,0.4-0.6l1.1-0.4c0.6,0,1.1-0.4,1.7-0.3      c0.8,0.8,0.8-0.8,1.5-0.8c1.7-0.2,3.5-0.1,4.5,1.4c0,0.2,0.3,0.2,0.2,0.4c-0.2,0.1-0.4-0.1-0.7-0.1c-1.1-0.3-2.3-0.9-3.4-0.3      c0,0.2-0.1,0.5-0.1,0.7c-0.1,0.3-0.1,0.5-0.1,0.8c0.7,0.2,1.3,0.7,1.8,1.2c0.4-0.7,1.1-1,1.8-1.2c0.6,0.1,1.2,0.1,1.7,0.5      c0.9,0.8,0.5,2.2,0.4,3.2c0.8,0.4,1.7,0.7,2.5,1.1c-0.4,0.3-0.9,0.5-1.4,0.6l-1.4-0.3c-0.2-0.1-0.4-0.1-0.5-0.3      c-0.5,0.5-1,1.1-1.3,1.7h19.3c-0.3-0.6-0.5-1-0.9-1.5c-0.4-0.8-0.2-2-0.3-2.9l1.8-2.7c1,0,2.1-0.4,3.2-0.2      c0.1,0,0.1-0.1,0.2-0.1c0.4-0.3,0.6-1,1.2-0.9c1.2-0.3,2.1,0.2,3,0.7c0,0.1-0.1,0.1-0.1,0.2c-0.4,0.6-1.1-0.1-1.6,0.1      c-0.2,0.2,0.1,0.5,0.1,0.7c0.2,0.2-0.2,0.2-0.3,0.3c-0.3,0-0.6,0-0.8-0.3c-0.1-0.1,0-0.2-0.1-0.2c-0.3,0.4-0.6,0.8-0.7,1.3      c0.3,0.3,0.8,0.6,0.9,1c0.3,0.5-0.3,0.8-0.4,1.2c0,0.1-0.2,0.1-0.2,0c-0.3-0.2-0.5-0.6-0.9-0.5c-0.3,1.2,0.1,2.5-0.1,3.7      c0.5,0.1,1.2,0,1.8,0l0.2-2.6c0.3-1.7,1.3-3.1,2.5-4.4c1.3-0.9,2.1,0.8,3.1,1.4c0.2,0,0.1,0.2,0.2,0.3c0,0.3-0.3,0.4-0.5,0.5      c-0.6,0.2-1-0.4-1.4-0.8c-0.4,0.4-0.5,0.9-0.9,1.2l0.1,0c0.5,0.5,0.9,0.9,1,1.6c-0.1,0.6-0.3,1.1-0.8,1.4      c-0.4-0.6-0.7-1.3-0.9-2c0,0,0,0,0,0.1c-0.8,0.2-1,1.1-1.1,1.8c0,0.7-0.5,1-0.3,1.6h10.1c1.1-0.2,2.3-0.1,3.2-0.9      c3.8,0.6,7.6-0.3,10.5-2.4c1.6-1.2,3-2.7,4.1-4.2c1-1.4,1.8-2.7,2.3-4.2c0.4-1,0.7-1.9,0.9-3      C245.9,108.8,245.3,103.4,243.7,98.8L243.7,98.8z"></path>
				<path id="path159" class="st2" d="M179,124.5c0.5-0.3,1.4-0.4,1.6-1.2c-0.2-0.2-0.4-0.4-0.7-0.4l-0.6,0.2c0-0.3,0.2-0.7,0.3-1.1      l1.9-0.6c-0.3,0.8-0.4,1.9-0.4,2.8c0.2,1.4,0.4,2.9,1.1,4.1h-2C180,127,178.6,126,179,124.5L179,124.5z"></path>
				<path id="path161" class="st2" d="M183.3,122.9h0.1l1.4,1.2l0.2,0c-0.1,1.4-0.2,2.8-0.2,4.3h-1.5c-0.3-1.4-0.8-2.8-0.7-4.3      C182.8,123.6,183,123.1,183.3,122.9L183.3,122.9z"></path>
				<path id="path163" class="st2" d="M186.3,124.2c0.3-0.3,0.4-0.9,0.9-1c0.4,0,0.7,0.1,1,0.3c0.5,0.6,0,1.4-0.2,2      c-0.2,0.9-0.5,1.9-0.8,2.8h-1.4L186.3,124.2L186.3,124.2z"></path>
				<path id="path165" class="st2" d="M207.7,123.8c0.3,0.4,0.4,0.9,0.9,1.3c0.4-0.6,0.5-1.4,0.3-2.1l-0.4-0.4      c0.5-0.1,1.1-0.2,1.6-0.3c-0.2,0.7-0.7,1.4-0.6,2.3c0,1.2,0.2,2.5,0.3,3.8h-1.6c-0.6-1.2-1.1-2.4-1.1-3.8      C207.4,124.2,207.5,123.9,207.7,123.8L207.7,123.8z"></path>
				<path id="path167" class="st1" d="M214.4,97.2c0,0.4-0.3,0.8,0,1.1c0.3-0.4,0.9-0.4,1.4-0.5c1.3-0.1,2.5,0.3,3.6,0.6      c-0.3-0.5-0.5-1-0.8-1.4c-0.6-0.2-1.6,0.3-1.7-0.7c-0.4-0.3-1-0.1-1.4-0.1C215,96.4,214.6,96.8,214.4,97.2z"></path>
				<path id="path169" class="st1" d="M171.3,85.2C171.3,85.2,171.3,85.2,171.3,85.2C171.3,85.2,171.3,85.2,171.3,85.2L171.3,85.2z"></path>
				<path id="path171" class="st1" d="M176.4,97.5l0.8-0.8c0.1,0,0.1,0,0.2,0.1l-0.1,1.5c0.4,0.4,0.9,0.5,1.4,0.5      c0-0.4,0.4-0.7,0.6-1.1c0.2-0.3,0.1-0.7,0.4-0.9l0.1,0.1c0.1,0.5,0.1,1,0.3,1.4c0,0.2,0.1,0.5,0.1,0.7c0.6,0,1.2-0.1,1.7-0.4      c0-0.5,0.2-1,0.2-1.4c0.1-0.2-0.2-0.5,0.2-0.5c0.2,0.4,0.5,0.8,0.7,1.3c0.8-0.8,1.2-1.9,1.4-3c-0.2-0.3-0.6-0.3-0.9-0.5      c-2.4-0.8-5.5-0.9-7.8,0.3C175.6,95.7,175.8,96.8,176.4,97.5L176.4,97.5z"></path>
				<path id="path173" class="st1" d="M154,123.5c-0.1,1.1,0,2.1,0.1,3.1c0.2,0.3,0.6,0.7,1,0.8l0.1-0.7c0.2-1-0.4-2,0.2-2.9      c0.4,0.1,0.8,0.3,1.1,0.5c0.2-0.9-0.1-2-1-2.5L154,123.5L154,123.5z"></path>
				<path id="path175" class="st1" d="M157.5,122c-0.5,1.6-1,3.6-0.3,5.3c0.4-0.3,0.8-0.5,1.1-0.8c-0.1-1.3-0.3-2.7,0.5-3.8      c0.7,0.2,1.2,0.9,1.4,1.5c0.5-0.6,0.6-1.4,0.4-2.2c0-0.6-0.7-0.5-1-0.7c0.1-0.5,0.1-1.1,0.6-1.4l-1.7,0.2      C158.2,120.7,157.8,121.3,157.5,122L157.5,122z"></path>
				<path id="path177_00000034079668796318025910000000410686739187214765_" class="st1" d="M161,126.8c0.1,0.1,0,0.3,0.1,0.4      c0.2-1.2,1.2-1.9,1.7-2.9c0.3-0.3,0.2-0.8,0.6-1.1c0.5,0,0.9,0.4,1.5,0.4c0.2,0.1-0.1,0.2-0.1,0.4c-0.1,0.9-0.5,1.7-0.4,2.7h0.1      c0.7-0.8,1.3-1.6,1.8-2.5l0.1-0.8c0.1-0.9-0.9-1.5-1.6-1.9l0.6-0.8l-0.8-0.3c-1,0.1-1.9,0.5-2.6,1.3      C161.2,123.1,161.1,124.9,161,126.8L161,126.8z"></path>
				<path id="path179" class="st1" d="M164.8,118.6c0.3,0.1,0.6-0.2,0.9,0c1.3,0.5,2.7,1,3.6,2l1.2,2.9l0.6-1.8l-0.4-1      c-0.3-0.7-1.2-0.6-1.8-0.7c-0.3-0.3,0-0.6,0.1-0.9c0.3-1-0.9-0.9-1.4-1.3c0-0.6-0.7-0.4-1.1-0.4l-0.1-0.2      c-0.1-0.1-0.3-0.1-0.4,0c0,0-0.1-0.1-0.1-0.1l-0.3,0.1C165.1,117.5,164.8,118,164.8,118.6L164.8,118.6z"></path>
				<path id="path181" class="st1" d="M165.6,115.4c0,0.2,0.2,0.4,0.3,0.5c0.6-0.2,1.2-0.6,2-0.3c0.9,0.8,1.9,1.7,3.1,2.1l0.4-0.1      c0.3,0.1,0.5,0.1,0.7,0.4c0.2,0.4-0.2,0.6-0.4,0.9c0.6,0.5,0.4,1.3,0.8,1.8l1-1.3c-0.2-0.6,0-1.6-0.9-1.6      c-0.3-0.2-0.5-0.5-0.5-0.8c-0.6-0.5-1.4-0.8-2-1.3c-0.5-0.4-0.8-1-1.4-1.1c-0.4-0.2-0.9-0.4-1.4-0.5      C166.3,113.8,166.2,114.9,165.6,115.4z"></path>
				<path id="path183" class="st1" d="M167,112.7l0.2,0.3c0.7,0,1.3-0.3,2-0.3c0.5,0.3,1.1,0.3,1.6,0.5c0.4,0.5,0.8,1.1,1.4,1.4      c1.1,0.2,1.8,1.4,2.2,2.3v-0.4c0.2-0.6,0-1.3-0.2-1.8c-0.3-0.3-0.7-0.5-1-0.7c-0.1-0.2,0-0.3,0-0.4c-0.4-0.5-1.1-0.7-1.6-1.1      c-0.7-1.1-2.2-0.8-3.3-1.1L167,112.7z"></path>
				<path id="path185" class="st1" d="M166.9,102.5c0.1,0.4,0.3,1,0.4,1.4c0.4-0.9,1.2-1.2,1.9-2c-0.4-0.3-0.9-0.4-1.3-0.5v0      C167.5,101.8,167,102.1,166.9,102.5z"></path>
				<path id="path187" class="st1" d="M169.5,107.1l0.6-0.6c0.6-0.6,1.2-1.4,1.3-2.2c-0.5-0.3-1-0.1-1.5,0.1      C169.8,105.2,169.5,106.1,169.5,107.1z"></path>
				<path id="path189" class="st1" d="M170,109c1,0.1,1.9,0.2,2.7-0.3l0.8-2.5c-0.3,0-0.5-0.1-0.7,0      C172.2,107.3,171.1,108.4,170,109L170,109z"></path>
				<path id="path191" class="st1" d="M170.2,100.2c0.6,0.9,1.7,1.9,2.8,2.2c-0.1-1.2-1.1-2-1.7-3l0-0.3c-0.4-0.4-0.9-0.7-1.3-0.9      C169.9,98.9,170.1,99.6,170.2,100.2z"></path>
				<path id="path193" class="st1" d="M173.7,109.1c0.7,0.1,1.6,0,2.2-0.2c1-0.2,1.6-1.3,1.9-2.2h-1.3l-1.4,1.3      C174.7,108.3,174.2,108.7,173.7,109.1L173.7,109.1z"></path>
				<path id="path195" class="st1" d="M173.5,98.9c0.2,1.1,0.7,2.1,1.3,3l0.2-2.1L173.5,98.9z"></path>
				<path id="path197" class="st1" d="M178.2,104.3c0.1-0.7-0.2-1.5-0.3-2.2c-0.4-0.3-1-0.3-1.5-0.5      C176.4,102.7,177.3,103.6,178.2,104.3L178.2,104.3z"></path>
				<path id="path199" class="st1" d="M176.9,111.3c0.9-0.3,1.7-0.6,2.6-1c0.5-0.7,1.3-1.4,1.4-2.3c-0.7,0.2-1.2,0-1.8,0.3      c-0.4,0.6-0.6,1.4-1.3,1.9C177.6,110.6,177.1,111,176.9,111.3L176.9,111.3z"></path>
				<path id="path201_00000026156319741410115080000015103238016228812986_" class="st1" d="M178.3,113l1.1,1.4      c0.6,0.2,1.3,0.1,1.8-0.2l-0.4-1.2C179.9,113.2,179.1,113.2,178.3,113L178.3,113z"></path>
				<path id="path203" class="st1" d="M180,103.2l0.4,1.8c1-0.8,1.2-1.9,1.2-3.2C181,102.5,180.7,102.9,180,103.2L180,103.2z"></path>
				<path id="path205" class="st1" d="M182.8,106.5c0,0.3,0.1,0.5,0.2,0.7c1.1,0.4,1.2,1.7,2.2,2.2c0.7,0.3,1.4-0.1,2-0.3      c-0.4-0.5-0.9-0.8-1.4-1.3c-0.3-0.1-0.6-0.3-0.6-0.7L182.8,106.5L182.8,106.5z"></path>
				<path id="path207" class="st1" d="M183.7,113c0.5,0.5,1.1,0.8,1.8,1c-0.1-0.2,0.1,0,0.1-0.1l-0.8-1.8c-0.4,0-0.9,0.1-1.3,0.1      C183.5,112.4,183.6,112.7,183.7,113L183.7,113z"></path>
				<path id="path209" class="st1" d="M185.2,104.5c-0.4-0.9-0.6-2-0.7-3c-0.4,0.5-0.9,0.8-1.3,1.3      C183,103.8,184.5,104.1,185.2,104.5L185.2,104.5z"></path>
				<path id="path211" class="st1" d="M186.9,103.5c0.5,0.7,1.6,0.4,2.2,0.2c-0.3-0.5-1.3-0.8-1.4-1.3c-0.1-1-0.3-1.9-0.6-2.8      C186.6,100.9,186,102.3,186.9,103.5z"></path>
				<path id="path213" class="st1" d="M187.8,106.5c1.4,1,2.8,2.2,4.8,1.8c0.1-0.1,0.4-0.1,0.4-0.3c-0.6-0.4-1.2-0.6-1.8-1l-0.7-1      h-0.3C189.4,106.3,188.6,106.4,187.8,106.5z"></path>
				<path id="path215" class="st1" d="M187.8,117.7h0.1c0.8-0.7,1.8-0.9,2.8-1.2c0.3,0.1,0.1,0.4,0.3,0.5c0.6-0.2,1.3-0.2,2-0.4      c0.7,0,1.4,0,2,0.4c0.5,0.6,1.4,0.6,2,1l-0.1-1c-1.3-1.5-3.4-1.6-5.2-1.6l0-0.2c-0.5,0-1,0.1-1.4,0.3c-0.6,0-1.2,0.3-1.8,0.5      C188.2,116.5,188,117.1,187.8,117.7L187.8,117.7z"></path>
				<path id="path217" class="st1" d="M188.9,100.7c0.5,0.7,1.4,1.2,2.3,1.1c-0.5-0.5-1-0.9-1.1-1.6c0.1-1.2-1.2-1.3-1.9-2      C188.5,99,188.4,99.9,188.9,100.7L188.9,100.7z"></path>
				<path id="path219" class="st1" d="M188.8,120.1h0.2c0.7-0.5,1.8-0.1,2.6-0.6c0.4-0.2,0.4,0.3,0.7,0.5c0.7,0.4,0.8,1.7,1.7,1.4      c1.2,0.6,0.9,2,0.9,3l1.1-0.7c-0.1-0.5,0.2-1.2-0.1-1.7c-0.3-0.6-1-0.6-1.4-1.1c0.4-0.7-0.5-1-0.7-1.6l0.1-0.1l1.5,0.2      c0.5,0.3,0.7,0.9,0.8,1.4c1.2,0.2,1.4,1.5,1.9,2.3c0.2-0.6,0.3-1.2,0.6-1.7c0-0.5-0.6-0.5-0.9-0.7c-0.1-0.7-0.4-1.4-1-1.8      c-1.3-0.3-2.4-1-3.9-1l-1.2,0.4c-0.7,0.2-1.3,0-1.8,0.4C189,118.8,189,119.6,188.8,120.1L188.8,120.1z"></path>
				<path id="path221" class="st1" d="M189.5,114.4l0.3,0.1c0.6-0.3,1.2-0.6,1.8-0.8c0.9-0.3,1.7,0.8,2.5,0.1      c0.3-0.2,0.5,0.1,0.8,0.3c0.3,0.6,1.1,0.6,1.7,0.7c-0.3-0.8-0.7-1.9-1.7-2c-0.4-0.2-0.9-0.2-1.3-0.4c-1.1-1.2-1.8,1-3,0.4      C190.2,113.4,189.6,113.8,189.5,114.4z"></path>
				<path id="path223" class="st1" d="M189.8,121.2c0.5,0.4,0.9,1,1.6,0.9c0.9,0.4,0.5,1.5,1,2.1l0.5-0.4l0,0l0.1-0.1l0,0      c0.1-0.4-0.1-1.1-0.3-1.6c-0.3-0.2-0.7,0-1-0.2c0-0.4-0.3-0.7-0.6-0.9c-0.2-0.2-0.5,0.1-0.8,0L189.8,121.2L189.8,121.2z"></path>
				<path id="path225_00000092448642585574404330000014347707406097050543_" class="st1" d="M191.6,104.3c0.5,0.8,1.4,1.2,2.1,1.8      c0.6,0.3,1.4,0.3,2,0.2c-0.6-0.5-1.2-1-1.7-1.6c-0.2-0.3-0.2-0.6-0.5-0.9C192.8,103.9,192.1,103.9,191.6,104.3L191.6,104.3z"></path>
				<path id="path227" class="st1" d="M192.3,99.3c0.6,0.8,1.6,0.5,2.6,0.5v-0.1l-1.4-1.2C193.1,98.7,192.7,99.1,192.3,99.3z"></path>
				<path id="path229" class="st1" d="M166.4,86.3l0.8,2.5c0-1.4,0.7-2.6,0.5-4l0.6-0.9l-1.3,0.4C166.7,84.9,166.4,85.5,166.4,86.3      L166.4,86.3z"></path>
				<path id="path231" class="st1" d="M166.9,82l1.1-0.6v-1.6c-0.5,0.3-0.7,0.7-1.1,1.1L166.9,82z"></path>
				<path id="path233" class="st1" d="M189.8,84.5c-0.3,0.3-0.7,0.4-1,0.5c0.6-1.1,0.9-2.5,0.4-3.7c0.3-0.1,0.6-0.2,0.9-0.3l0,0      l0.8-0.7c1-0.7,0.6-2,1-3c-0.5-0.8-0.7-1.7-1.4-2.4l0,0c-0.6-0.7-1.6-0.6-2.4-1c-1-0.3-1.8,0.4-2.6,0.8      c-0.3,0.1-0.1,0.5-0.5,0.5c-0.2,0.5-0.4,1.1-0.6,1.6c-1.4-0.2-2.9,0-4,0.7c-0.6-0.4-1.3-0.5-2-0.7c-0.5-0.1-1.1,0.1-1.5-0.2      c-0.5-0.6-0.7-1.7-1.6-1.8c-0.3-0.1-0.4-0.5-0.4-0.8c-0.6-0.1-1.1-0.4-1.7-0.5c-0.9-0.4-1.6,0.2-2.3,0.7      c-0.3,0.1-0.6,0.2-0.9,0.3c-0.5,0.8-1,1.6-1.3,2.4c0.1,0.7,0.4,1.3,0.8,1.9c0.3,0.9,1.3,1.6,2.2,2c-0.4,1.4-0.4,3,0,4.4      c0,0,0,0,0,0c0,0,0,0,0,0c-0.1,0-0.3,0-0.4,0h0c0.2,1.3,0.8,2.5,1.9,3.5c0.4,0.1,0.3,0.6,0.4,0.8c0.1,0.1,0.1,0.4,0.1,0.5      c-2.2-0.1-4.2,0.5-5.9,1.5c-0.5,0.2-0.3,0.8-0.3,1.3c1.2-0.8,2.6-1.4,4.1-1.7c0.6,0,1.4-0.2,2,0l0.1,1.2      c-1.7,0.9-3.5,1.4-4.9,2.8c0,0.4-0.1,0.9,0.1,1.3l1.3-1c1.2-0.9,2.5-1.7,4-2.2c0.4,0.4,0.8,0.9,1.3,1.2c0.9-0.5,1.8-0.9,2.8-1.2      c0.5-0.3,1.4,0,1.7-0.6l0.2-1.3c0,0-0.1-0.1-0.1-0.1c-0.7-0.4-1.1-1-1-1.8c-0.2,0.1-0.5,0.2-0.7,0.2c-0.2-0.1-0.4-0.1-0.5-0.3      c0-0.3-0.2-0.7,0.1-0.9c0.9-0.6,2.1-0.6,3.3-0.5c0.9,0.1,2.1,0.1,2.4,1.1c0,0.3,0,0.6-0.3,0.8c-0.3,0.2-0.7,0-0.9-0.1      c-0.2,0.7-0.6,1.4-1.4,1.7l0.1,0.8c0.1,0.4,0.1,1,0.7,0.8c1.3,0.3,2.5,1,3.7,1.7c0.4-0.4,0.7-0.8,1-1.2c2.1,0.7,3.9,2.2,5.6,3.7      l0.1-1.2c-1.6-1.4-3.5-2.4-5.3-3.2c0.1-0.4,0.2-0.7,0.2-1.1c2.2,0.1,4.4,0.8,6.2,1.9l0-1c-1.9-1-4.1-1.7-6.4-1.7      c-0.1-0.1-0.1-0.3-0.1-0.4c1.1-0.2,1.9-1.3,2.2-2.3c0.6-0.6,1.4-1.4,1.2-2.3c0-0.1,0.1-0.2,0.1-0.2      C189.8,85,189.9,84.7,189.8,84.5L189.8,84.5z"></path>
				<path id="path235" class="st1" d="M191.8,88.1l1.2-0.4l0.1-0.6c0.3-0.9-0.4-1.6-0.7-2.4L191.8,88.1L191.8,88.1z"></path>
				<path id="path237" class="st1" d="M194.7,92.4c0.5,0.6,1.1,1.5,2.1,1.3c-0.1-0.4-0.3-0.7-0.4-1.1c-0.3-0.3-0.3-1.1-0.8-0.8      c-0.4-0.2-0.5-0.7-0.7-1C194.6,91.3,194.7,91.9,194.7,92.4L194.7,92.4z"></path>
				<path id="path239" class="st1" d="M194.9,96.5c0.2,0.3,0.3,0.7,0.5,0.9c0.4,0.2,0.9,0.2,1.4,0.2c0.4-0.1,0.7,0.4,1.1,0.1      c-0.5-0.3-0.8-0.9-1.3-1.3C196,96,195.5,96.4,194.9,96.5L194.9,96.5z"></path>
				<path id="path241" class="st1" d="M195.6,102.9c1,0.6,2.2,1.1,3.5,0.9c0.1-0.1,0.4-0.1,0.4-0.2c-0.8-0.3-1.6-1.1-2.5-1.2      c-0.5-0.7-1.1,0.2-1.7,0.1C195.4,102.7,195.6,102.8,195.6,102.9z"></path>
				<path id="path243" class="st1" d="M198.6,115.1l0.2,0.4c0.2,1.4,1.1,2.8,0.6,4.3c0.4,0.3,0.5,0.8,0.8,1.2h0.1      c0.3-1.2,0.1-2.4-0.1-3.7C200.3,116.4,199.2,115.7,198.6,115.1L198.6,115.1z"></path>
				<path id="path245" class="st1" d="M198.8,101c0.7,0.6,1.9,0.6,2.7,0.3c-0.5-0.3-1.1-0.6-1.6-1L198.8,101L198.8,101z"></path>
				<path id="path247" class="st1" d="M202.3,105.2c-0.1,0.6,0.3,1.1,0.7,1.4c0.2-0.3,0.4-0.6,0.4-1c-0.1-0.6-0.5-1.1-1-1.5      C202.3,104.4,202.2,104.8,202.3,105.2z"></path>
				<path id="path249_00000039100312129970969730000005864281031373411516_" class="st1" d="M202.3,111.5c-0.1,0.6,0.6,0.7,0.9,1.1      c0.3,0.3-0.2,0.5-0.2,0.8c0.5,0.7,0.8,1.4,0.8,2.4c0.2-0.8,0.5-1.6,0.6-2.5c-0.1-0.6-1-0.5-0.9-1.2c0.3-0.7-0.1-1.4-0.2-2      c-0.1-0.1-0.2-0.3-0.3-0.2C202.9,110.4,202.3,110.8,202.3,111.5L202.3,111.5z"></path>
				<path id="path251" class="st1" d="M204.3,108.2l0.7,1.4c0.3,0,0.5-0.3,0.8-0.6c0.2-0.6-0.3-1-0.5-1.4c-0.1-0.3,0-0.8-0.2-1.1      c-0.2-0.1-0.4-0.3-0.6-0.2L204.3,108.2L204.3,108.2z"></path>
				<path id="path253" class="st1" d="M205.2,104.6c0.6,0.3,1.2,0.8,1.6,1.5c0.5,1.4,1.3,2.7,1.9,4.1c0.2,1,0.4,1.8,0.6,2.7      c0.1,0.2,0,0.7,0.4,0.7c0.1-1.1,0.3-2.1,0.3-3.2c-0.4-0.5-0.8-0.6-1.3-0.9v-0.1c0.1-0.2,0.3-0.5,0.5-0.5      c0.1-0.1,0.5-0.3,0.3-0.5c-0.7-0.7-0.7-2-1.9-2.2c-0.4-0.2-0.5-0.6-0.5-1C206.7,104.7,205.9,104.6,205.2,104.6z"></path>
				<path id="path255" class="st1" d="M205.9,112.1c0.7,0.6,0.5,1.6,0.4,2.5c-0.1,0.5,0.6,0.2,0.8,0.5c0.4,0.6,0.2,1.6,0,2.3      c0.4-0.6,0.8-1.1,1.1-1.7c0-0.2,0.3-0.3,0.3-0.6c0.1-0.4-0.4-0.2-0.6-0.3c-0.2,0-0.4-0.2-0.3-0.4c0.4-0.7,0-1.5-0.1-2.2      c-0.2-0.6,0.1-1.3-0.2-1.8C206.9,110.9,205.5,111,205.9,112.1L205.9,112.1z"></path>
				<path id="path257" class="st1" d="M207.2,102.2c1.3,1.2,2.2,2.5,3.5,3.7c0-0.5,0-1-0.1-1.6c-0.2-0.4-0.6-0.6-0.9-0.9      C208.8,103.4,208.2,102,207.2,102.2L207.2,102.2z"></path>
				<path id="path259" class="st1" d="M210.5,108.8c0,0.1,0.1,0.2,0.1,0.4c0.5,0.9,1.1,1.8,1.5,2.8c-0.1-1,0.6-2.3-0.3-3.1      c-0.1-0.3-0.5-0.2-0.8-0.2L210.5,108.8L210.5,108.8z"></path>
				<path id="path261" class="st1" d="M213.9,118.9c0.4,0.2,0.9-0.1,1.3-0.4c0.4-0.1,0.6,0.1,0.9,0.3c0.1,0.2,0,0.4,0,0.6      c0.8,0.2,1.7,0.5,2.4,1l0.2-0.2c0.1-0.6-0.4-1-0.9-1.4c-0.3-0.2-0.7-0.1-0.9-0.3c0.1-0.2,0.1-0.6,0.1-0.8      c-0.5,0-0.8-0.1-1.1-0.4c-0.2-0.1-0.5-0.3-0.7,0C214.6,117.9,214.5,118.6,213.9,118.9z"></path>
				<path id="path263" class="st1" d="M214.8,101.5c0.4-0.1,0.7-0.2,1-0.4c0.9-0.8,2.3-0.3,3.4-0.3c-0.2-0.4-0.5-0.7-0.8-1.1      c-0.4-0.2-0.8-0.3-1.2-0.3c-1-0.6-1.6,0.4-2.3,0.8C214.7,100.6,214.6,101.2,214.8,101.5z"></path>
				<path id="path265" class="st1" d="M214.9,104.4C214.9,104.3,214.9,104.3,214.9,104.4c0.2,0,0,0.3,0.2,0.3c0.4-0.2,0.7-0.4,1-0.7      c0.9,0,1.5-0.9,2.4-0.9c1.6,0.3,3.1,0.6,4.4,1.3c-0.1-0.9-0.9-1.7-1.7-2.1c-0.5-0.2-0.8,0.1-1.1,0.3c-0.9,0.6-0.5-0.8-1.1-0.9      c-0.9,0.3-1.8,0.6-2.7,0.5c-0.6,0.2-1,0.7-1.6,0.7C214.8,103.4,214.7,104,214.9,104.4L214.9,104.4z"></path>
				<path id="path267" class="st1" d="M215.5,107.5c0.3,0.3,0.8,0.3,1.2,0.3l1.2-0.5c0-0.2-0.4-0.3-0.3-0.5c0.3-0.4,0.8-0.1,1.2-0.3      c0.6-0.1,1.2-0.7,1.8-0.2c0,0.1,0,0.2,0,0.2c-0.2,0.4,0.1,0.7,0.5,0.9c0.7,0.1,1.3,0.7,2,0.5c-0.1-0.6-0.2-1.1-0.4-1.6      c-0.6-0.1-1-0.6-1.5-0.8c-0.2,0.2-0.6,0.4-0.8,0.4c-1.1-0.2-2.4-0.9-3.5-0.2c-0.4,0.5-1.1,0.3-1.6,0.5      C215.3,106.6,215.4,107,215.5,107.5L215.5,107.5z"></path>
				<path id="path269" class="st1" d="M216,115.7c-0.1,0.2-0.3,0.6,0.1,0.7c0.9,0,2.1-0.4,2.8,0.3c0.2,0.2,0.1,0.6,0.1,0.8l1.2,1      c0.1-0.6,0.3-1.1,0.3-1.7c-0.1-0.4-0.3-0.9-0.7-1.2c-0.8,0-1.2-0.9-2.1-0.8c-0.4-0.1-0.8,0.3-1.3,0.3      C216.3,115.2,216.1,115.5,216,115.7z"></path>
				<path id="path271" class="st1" d="M216.3,109.2c0.2,0.4,0.4,1,0.7,1c0.8-0.4,2-0.6,3-0.2c0.3,0.1,0.3,0.4,0.2,0.6      c0.5,0.3,1.1,0.5,1.6,0.8l-0.1-0.8c0-0.9-1.2-1-1.3-1.9c-0.9-0.3-2-0.4-3-0.2c-0.3,0.3-0.8,0.3-1.2,0.3      C216.2,109,216.3,109.1,216.3,109.2L216.3,109.2z"></path>
				<path id="path273_00000021810080651282744190000015330420708320728200_" class="st1" d="M216.6,113.6c0.5-0.2,0.9-0.7,1.5-0.8      c0.9,0,1.7,0.4,2.3,1.1c0.3,0.2,0.3,0.8,0.7,0.8c-0.1-0.7,0.1-1.3,0.1-2c-0.6-1-2.1-0.2-2.6-1.4l-1,0.1c-0.7,0.2-0.5,1-0.6,1.6      C216.7,113.3,216.5,113.4,216.6,113.6L216.6,113.6z"></path>
				<path id="path275" class="st1" d="M221.7,119.7c0.4,0.9,1.4,1.5,1.5,2.5c0.2-0.3,0.4-0.6,0.5-0.9c0-0.3-0.3-0.3-0.5-0.5      c-0.1-0.4,0.1-0.7,0.1-1c-0.2-0.5-0.6-1-1.1-1.3L221.7,119.7L221.7,119.7z"></path>
				<path id="path277" class="st1" d="M223.5,117.5l1,1.4c0.4-0.7,0.4-1.7,0.3-2.5c-0.1-0.2-0.3-0.4-0.5-0.3      C223.8,116.5,223.8,117.1,223.5,117.5L223.5,117.5z"></path>
				<path id="path279" class="st1" d="M219.3,79.6c0.4,0.2,0.7,0.3,1.2,0.4c0.3-0.2,0.7-0.3,1-0.2c0.5,0.3,1.2-0.1,1.8,0      c-0.5-0.5-1.1-0.8-1.8-1.1C220.7,78.9,220.1,79.4,219.3,79.6z"></path>
				<path id="path281" class="st1" d="M224.8,80.9c0.7,0.1,1.3,0.7,1.8,1.3c0.6,0.1,1.1,0.5,1.5,1l-0.2-0.7      c-0.2-0.7-0.6-1.3-1.1-1.9C226.1,80.6,225.4,80.7,224.8,80.9L224.8,80.9z"></path>
				<path id="path283" class="st2" d="M172.2,74.9l0.4,0c1.1,0.5,2.9,0.8,3,2.4c-1.1,0.4-2.2,1-3.1,1.9c-0.7-0.7-2-0.3-2.3-1.5      C170.5,76.6,170.9,75.2,172.2,74.9z"></path>
				<path id="path285" class="st2" d="M173.3,81.9c1.3-0.1,2.5,0.1,3.8,0c0.3,0.1,0.7,0.4,0.8,0.7c0,1.5-0.5,2.9-0.6,4.5      c-0.6,0.2-1.1,0.7-1.3,1.3c-0.5,0.2-1,0.5-1.5,0.7c-0.2-0.5-0.2-1.2,0.2-1.6c0.5-0.8,2-0.6,1.9-1.8c0.4-0.6,0-1.3,0-1.9      c-0.1-0.5-0.3,0.2-0.5,0.1c-0.5,0.1-0.9,0.1-1.3-0.1c-0.3-0.3-0.7-0.6-0.7-1c-0.4-0.2-0.9-0.5-1.1-0.9L173.3,81.9L173.3,81.9z"></path>
				<path id="path287" class="st2" d="M174.8,90.9c0.6,0.1,1.2-0.2,1.8,0.1c-0.1,0.2-0.4,0.3-0.6,0.3l-0.9,0.4      C174.7,91.7,174.9,91.1,174.8,90.9L174.8,90.9z"></path>
				<path id="path289" class="st2" d="M177.3,79.4c0.6-0.2,1.3-0.6,1.9-0.4c-0.5,0.5-0.8,1.1-1.2,1.6l-1.9,0      C176.3,80,176.8,79.6,177.3,79.4L177.3,79.4z"></path>
				<path id="path291" class="st2" d="M183,78.9c0.8-0.1,0.8,0.9,1.5,0.9c0.1,0.2,0.3,0.3,0.2,0.6c-0.4,0.2-1,0.1-1.5,0.2      c-0.6-0.3-0.2-1.4-1.2-1.4c-0.1-0.1-0.2-0.2,0-0.3C182.2,78.8,182.6,78.9,183,78.9L183,78.9z"></path>
				<path id="path293" class="st2" d="M182.5,82.6c0.4-0.5,0.9-0.5,1.4-0.6l3.7,0.1c0.2,0.1-0.1,0.3-0.1,0.4      c-0.2,0.2-0.5,0.3-0.7,0.5c-0.5,0-0.4,0.6-0.8,0.8c-0.5,0.5-1.3,0.3-1.9,0.2c-0.2-0.2-0.5-0.4-0.6-0.6l-0.2,0.2      c0.2,0.8,0.2,1.6,0.3,2.4l0.9,0.6c0,1.3,1.5,0.9,2.2,1.6c-0.2,0.5-0.5,0.8-0.8,1.2c-0.5-0.5-1.1-0.8-1.8-1.1      c-0.1-0.7-0.9-1.2-1.4-1.6c-0.1-1.4-0.2-2.7-0.4-4.1L182.5,82.6L182.5,82.6z"></path>
				<path id="path295" class="st2" d="M183.8,91.1h1.7l-0.2,0.9l-1.7-0.7C183.5,91.2,183.7,91.1,183.8,91.1L183.8,91.1z"></path>
				<path id="path297" class="st2" d="M186.8,75.5l1.3-0.4c0.7,0.3,1.4,0.7,2.1,1.2c0.5,0.9,0.4,2.2,0.2,3.3c-0.4,0.4-1.2,0-1.5,0.7      h-0.1c-0.5-1.3-1.8-2.5-3-3.1C185.9,76.5,186.2,75.9,186.8,75.5L186.8,75.5z"></path>
			</g>
		</g>
	</g>
</g>
</svg>
