<?xml version="1.0" encoding="UTF-8"?>
<svg xmlns="http://www.w3.org/2000/svg" xmlns:xlink="http://www.w3.org/1999/xlink" version="1.1" id="Ebene_1" x="0px" y="0px" viewBox="0 0 380 200" style="enable-background:new 0 0 380 200;" xml:space="preserve">
<style type="text/css">
	.st0{fill:#E2001A;}
	.st1{opacity:0.5806;fill:#00001A;enable-background:new    ;}
	.st2{fill:url(#path8100_00000142885974014060066220000007017942245787890311_);}
	.st3{fill:#4B4B4D;}
	.st4{fill:#FFFFFF;}
	.st5{fill:url(#path8622_00000004536928368566777160000012435241071081941386_);}
</style>
<g id="MODULE_00000155850381298326883590000008215943638504793233_">
	
		<g id="MODULE_x5F_DESKTOP_x2F_Finanzierungspartner_x5F_Desktop_x5F_1024_x2B__00000089553771073875607490000010128029206444158877_" transform="translate(-967, -249)">
		<g id="HypoVereinsbank_Logo_2008" transform="translate(967, 249)">
			<g id="g6550" transform="translate(24, 2)">
				<g id="g5992" transform="translate(5.6022, 8.509) scale(-1, 1) rotate(-180) translate(-5.6022, -8.509)translate(0, 0)">
					<path id="path5994" d="M67.7-84.8h-5.6v14.5h-10v-8.5c0-3.3-2.7-6-5.9-6v26.7c0,3.2,2.6,5.9,5.9,5.9h0V-66h10v8.1       c0,3.1,2.4,5.7,5.5,5.7h0V-84.8"></path>
				</g>
				
					<g id="g5996" transform="translate(17.2785, 13.1862) scale(-1, 1) rotate(-180) translate(-17.2785, -13.1862)translate(11.9553, 4.3724)">
					<path id="path5998" d="M72.2-55.6h5.4L67.8-86c-0.6-2-2.5-3.5-5-3.5H61l3.8,10.9l-7.5,22.8h6.1l4.3-16L72.2-55.6"></path>
				</g>
				
					<g id="g6000" transform="translate(28.1211, 13.1862) scale(-1, 1) rotate(-180) translate(-28.1211, -13.1862)translate(23.1342, 4.3724)">
					<path id="path6002" d="M80.9-67.8c0,5.8-1.6,8.5-5.4,8.5c-0.9,0-1.7-0.1-2.4-0.4v-16.4c0.6-0.2,1.2-0.3,2-0.3       C79.9-76.5,80.9-71.7,80.9-67.8z M86.6-67.6c0-7.5-4.1-12.5-10.3-12.5c-1.2,0-2.4,0.2-3.2,0.4V-84c0-3-2.4-5.4-5.4-5.4h-0.3v32       l0.1,0.1c2.1,1.1,4.8,1.7,8.1,1.7C82.5-55.6,86.6-60.2,86.6-67.6"></path>
				</g>
				
					<g id="g6004" transform="translate(39.2338, 10.774) scale(-1, 1) rotate(-180) translate(-39.2338, -10.774)translate(33.7985, 4.3724)">
					<path id="path6006" d="M92.7-72.7c0,2.5-0.6,8.4-5.1,8.4c-4.6,0-5-6.5-5-8.4c0-1.9,0.4-8.2,5-8.2       C92.4-80.9,92.7-74.6,92.7-72.7z M98-72.7c0-7.5-4-12.3-10.4-12.3c-6.4,0-10.4,4.8-10.4,12.3c0,7.6,3.9,12.3,10.4,12.3       C94.1-60.5,98-65.2,98-72.7"></path>
				</g>
				
					<g id="g6008" transform="translate(49.7206, 8.4979) scale(-1, 1) rotate(-180) translate(-49.7206, -8.4979)translate(42.9663, 0)">
					<path id="path6010" d="M111.5-52.3L102.6-81c-0.7-2.2-2.8-3.8-5.3-3.8h-1.5L85.6-52.3h6.1l7.1-25.2l6,21.4       c0.6,2.3,3,3.8,5.5,3.8H111.5"></path>
				</g>
				
					<g id="g6012" transform="translate(60.184, 10.774) scale(-1, 1) rotate(-180) translate(-60.184, -10.774)translate(54.9844, 4.3724)">
					<path id="path6014" d="M111.6-69.5c-0.2,4.8-3.1,5.3-4.7,5.3h-0.2c-3.2-0.1-4.7-2.4-4.7-6.6L111.6-69.5z M116.5-72.8l-14.3-2       c0.5-3.9,2.4-6,6-6c4,0,6,1.3,7.5,2.3v-4.8c-1.5-0.8-4.2-1.7-8-1.7c-7,0-11.1,4.7-11.1,12.3c0,7.4,3.9,12.2,10.2,12.2       c6.3,0,9.7-4.2,9.7-11.4V-72.8"></path>
				</g>
				
					<g id="g6016" transform="translate(69.387, 10.6841) scale(-1, 1) rotate(-180) translate(-69.387, -10.6841)translate(66.4012, 4.3724)">
					<path id="path6018" d="M115.3-60.6c0.9,0,2.1-0.1,3.2-0.3v-4.6c-2,1.4-4.6,1-5.7,0.3v-14.2c0-3-2.4-5.4-5.4-5.4h-0.3v22.3       C109.3-61.4,111.6-60.6,115.3-60.6"></path>
				</g>
				
					<g id="g6020" transform="translate(77.1334, 10.774) scale(-1, 1) rotate(-180) translate(-77.1334, -10.774)translate(71.9337, 4.3724)">
					<path id="path6022" d="M127.1-69.5c-0.2,4.8-3.1,5.3-4.7,5.3h-0.2c-3.2-0.1-4.7-2.4-4.7-6.6L127.1-69.5z M132.1-72.8l-14.3-2       c0.5-3.9,2.4-6,6-6c4,0,6,1.3,7.5,2.3v-4.8c-1.5-0.8-4.2-1.7-8-1.7c-7,0-11.1,4.7-11.1,12.3c0,7.4,3.9,12.2,10.2,12.2       c6.3,0,9.7-4.2,9.7-11.4V-72.8"></path>
				</g>
				
					<g id="g6024" transform="translate(84.6322, 8.4979) scale(-1, 1) rotate(-180) translate(-84.6322, -8.4979)translate(83.0108, 0)">
					<path id="path6026" d="M128.2-60.6v-24.2h-0.3c-3,0-5.4,2.5-5.4,5.4v18.7H128.2z M128.5-55.2c0-1.6-1.4-2.8-3.1-2.8       c-1.7,0-3.1,1.3-3.1,2.8c0,1.6,1.4,2.9,3.1,2.9C127.1-52.3,128.5-53.6,128.5-55.2"></path>
				</g>
				
					<g id="g6028" transform="translate(92.2384, 10.6841) scale(-1, 1) rotate(-180) translate(-92.2384, -10.6841)translate(87.4078, 4.3724)">
					<path id="path6030" d="M135.5-60.6c8,0,9.3-4.5,9.3-7.3v-16.9h-0.3c-3,0-5.5,2.5-5.5,5.5V-68c0,1.6-0.6,3.5-3.8,3.5       c-1.5,0-2.3-0.2-3.3-0.5c0-0.4,0-19.8,0-19.8h-5.7v22.4C128.7-61.3,132.7-60.6,135.5-60.6"></path>
				</g>
				
					<g id="g6032" transform="translate(101.762, 10.774) scale(-1, 1) rotate(-180) translate(-101.762, -10.774)translate(97.9158, 4.3724)">
					<path id="path6034" d="M150.7-77.8c0-3.8-3.3-7.2-8.4-7.2c-2.7,0-5,0.8-6.4,1.7v4.8c1.6-1.9,3.8-2.5,5.7-2.5       c2.1,0,3.6,1.3,3.6,3.2c0,2-1,2.9-3.4,3.8c-4.4,1.7-5.4,4.3-5.4,6.7c0,3.7,3,6.9,7.5,6.9c2.6,0,4-0.7,5.5-1.6v-4.4       c-1.5,1.8-2.8,2.3-4.5,2.3c-2.1,0-3.3-1.3-3.3-2.9c0-1.9,1.4-2.9,3.5-3.7C149.5-72.6,150.7-75.1,150.7-77.8"></path>
				</g>
				
					<g id="g6036" transform="translate(111.5706, 8.5878) scale(-1, 1) rotate(-180) translate(-111.5706, -8.5878)translate(106.5162, 0)">
					<path id="path6038" d="M149.4-81.3c0.6-0.1,1.9-0.2,2.7-0.2c3.9,0,5.8,3,5.8,8.3c0,4.9-1.6,8.8-6.2,8.8c-0.8,0-1.6-0.2-2.3-0.4       V-81.3z M149.4-52.1v-9.8c1,0.3,2.2,0.5,3.5,0.5c6,0,10.2-4.4,10.2-12.1c0-7.4-3.9-11.4-10.6-11.4h-1c-1.8,0-6.1,0.3-7.8,0.6       v26.8c0,3,2.4,5.5,5.4,5.5H149.4"></path>
				</g>
				
					<g id="g6040" transform="translate(121.8612, 10.774) scale(-1, 1) rotate(-180) translate(-121.8612, -10.774)translate(117.0751, 4.3724)">
					<path id="path6042" d="M166.6-72.1c-5-0.5-8.1-1.5-8.1-5.5c0-3,1.8-4.3,4.9-4.3c1.2,0,2.6,0.1,3.2,0.2V-72.1z M166.6-69.4v1.6       c0,3.1-1.9,3.9-4.6,3.9c-2.3,0-4.5-0.9-7.1-2.2v3.8c1.5,0.7,4.3,1.8,8,1.8c4.8,0,8.9-2.5,8.9-8.5v-15.4       c-1.6-0.3-5.3-0.6-7.5-0.6h-1.2c-6.3,0-9.6,2.7-9.6,7.2C153.5-71.6,159.5-70.1,166.6-69.4"></path>
				</g>
				
					<g id="g6044" transform="translate(132.7437, 10.6841) scale(-1, 1) rotate(-180) translate(-132.7437, -10.6841)translate(127.9127, 4.3724)">
					<path id="path6046" d="M172.6-60.6c8,0,9.3-4.5,9.3-7.3v-16.9h-0.3c-3,0-5.5,2.5-5.5,5.5V-68c0,1.6-0.6,3.5-3.8,3.5       c-1.5,0-2.3-0.2-3.3-0.5c0-0.4,0-19.8,0-19.8h-5.7v22.4C165.8-61.3,169.8-60.6,172.6-60.6"></path>
				</g>
				
					<g id="g6048" transform="translate(143.9456, 8.4979) scale(-1, 1) rotate(-180) translate(-143.9456, -8.4979)translate(138.8912, 0)">
					<path id="path6050" d="M179.1-79.2c0-3.1-2.4-5.6-5.6-5.6h0v26.9c0,3.1,2.4,5.6,5.6,5.6h0v-19.6l7.1,10.6h5.4L184.2-72       l8.6-12.8h-6l-7.7,12V-79.2"></path>
				</g>
			</g>
			<g id="g6582" transform="translate(24, 25)">
				
					<g id="g6052" transform="translate(2.1599, 4.0188) scale(-1, 1) rotate(-180) translate(-2.1599, -4.0188)translate(0, 0.8734)">
					<path id="path6054" class="st0" d="M50.4-96.9c-2.5,0-4.1,1.6-4.1,3.6v8.5h1.8v-8.5c0-1.5,1.1-2.3,2.4-2.3       c1.3,0,2.4,0.8,2.4,2.3v8.5h1.6v-8.5C54.6-95.3,53-96.9,50.4-96.9"></path>
				</g>
				
					<g id="g6056" transform="translate(7.1238, 4.5941) scale(-1, 1) rotate(-180) translate(-7.1238, -4.5941)translate(5.1549, 2.124)">
					<path id="path6058" class="st0" d="M56.8-96.8v6.7c0,0.9-0.4,1.8-2.2,1.8c-1,0-1.4-0.1-2-0.3v-8.2H51v8.8       c0.9,0.4,2.1,0.7,3.8,0.7c2.9,0,3.7-1.4,3.7-2.8v-6.7H56.8"></path>
				</g>
				<path id="path6060" class="st0" d="M67,103.9h-1.7v-9.3H67V103.9z M66.1,92.8c-0.6,0-1-0.4-1-0.8c0-0.5,0.4-0.8,1-0.8      c0.5,0,1,0.4,1,0.8C67.1,92.4,66.7,92.8,66.1,92.8"></path>
				
					<g id="g6062" transform="translate(13.4476, 3.9688) scale(-1, 1) rotate(-180) translate(-13.4476, -3.9688)translate(11.4686, 0.7829)">
					<path id="path6064" class="st0" d="M61.8-96.9c-3.2,0-5,2.7-5,6.1c0,3.3,1.8,6.1,5,6.1c1.2,0,2-0.3,2.6-0.7l-0.4-0.9       c-0.4,0.2-1,0.5-1.9,0.5c-2.5,0-3.4-2.5-3.4-5c0-2.6,1-4.9,3.4-4.9c0.8,0,1.4,0.2,1.9,0.5l0.5-1C63.8-96.6,62.8-96.9,61.8-96.9       "></path>
				</g>
				
					<g id="g6066" transform="translate(16.9671, 4.5968) scale(-1, 1) rotate(-180) translate(-16.9671, -4.5968)translate(15.7986, 2.1293)">
					<path id="path6068" class="st0" d="M64.8-88.5c-0.8,0.2-1.8,0.2-2.4-0.2v-8.1h-1.7v8.8c1,0.5,2,0.7,4.5,0.7L64.8-88.5"></path>
				</g>
				
					<g id="g6070" transform="translate(20.1701, 4.6393) scale(-1, 1) rotate(-180) translate(-20.1701, -4.6393)translate(18.0451, 2.124)">
					<path id="path6072" class="st0" d="M66.9-88.2c-1.5,0-2.6-1.1-2.6-3.6l5,0.7C69.3-89,68.4-88.2,66.9-88.2z M64.4-92.6       c0.2-2.1,1.3-3.1,3.2-3.1c1.2,0,2,0.3,2.6,0.5l0.4-1c-0.6-0.3-1.7-0.6-3.1-0.6c-2.7,0-4.6,1.5-4.6,4.8c0,3.2,1.7,4.8,4.2,4.8       c2.5,0,4-1.4,4-4.6L64.4-92.6"></path>
				</g>
				
					<g id="g6074" transform="translate(24.6914, 3.5774) scale(-1, 1) rotate(-180) translate(-24.6914, -3.5774)translate(22.6473, 0)">
					<path id="path6076" class="st0" d="M73.2-88.4c-0.4,0.1-0.8,0.2-1.3,0.2c-2.4,0-3.2-1.9-3.2-3.9c0-2.2,0.8-3.8,3-3.8       c0.7,0,1.2,0.1,1.5,0.3V-88.4z M71.6-96.9c-3,0-4.6,1.9-4.6,4.7c0,3.1,1.8,4.9,4.5,4.9c0.6,0,1.1-0.1,1.6-0.2v4.4h1.7v-13       C74.2-96.6,73-96.9,71.6-96.9"></path>
				</g>
				<path id="path6078" class="st0" d="M100.8,103.9h-1.7v-9.3h1.7V103.9z M99.9,92.8c-0.6,0-1-0.4-1-0.8c0-0.5,0.4-0.8,1-0.8      c0.5,0,1,0.4,1,0.8C100.9,92.4,100.5,92.8,99.9,92.8"></path>
				
					<g id="g6080" transform="translate(30.1886, 3.9823) scale(-1, 1) rotate(-180) translate(-30.1886, -3.9823)translate(28.9601, 0.8551)">
					<path id="path6082" class="st0" d="M76.6-96.8c-1.9,0-2.6,1.2-2.6,2.3v6.1h-1.2v0.9H74v2.1l1.7,0.5v-2.6h1.8v-0.9h-1.8v-6.1       c0-0.7,0.4-1.3,1.3-1.3c0.2,0,0.3,0,0.5,0.1v-1C77.3-96.7,77-96.8,76.6-96.8"></path>
				</g>
				
					<g id="g6084" transform="translate(36.1443, 3.9688) scale(-1, 1) rotate(-180) translate(-36.1443, -3.9688)translate(33.8133, 0.7829)">
					<path id="path6086" class="st0" d="M82.8-96.9c-3.1,0-5.6,2-5.6,6.2c0,3.9,2.5,6,5.6,6c1.4,0,2.5-0.3,3.1-0.6l-0.5-1       C85-86,84.2-85.8,83-85.8c-2.5,0-3.9-1.6-3.9-5c0-3.2,1.6-4.9,3.7-4.9c0.9,0,1.4,0.1,1.7,0.3v4.4h-2.3v1h4v-6.2       C85.4-96.6,84.5-96.9,82.8-96.9"></path>
				</g>
				
					<g id="g6088" transform="translate(40.419, 4.5968) scale(-1, 1) rotate(-180) translate(-40.419, -4.5968)translate(39.2505, 2.1293)">
					<path id="path6090" class="st0" d="M86.3-88.5c-0.8,0.2-1.8,0.2-2.4-0.2v-8.1h-1.7v8.8c1,0.5,2,0.7,4.5,0.7L86.3-88.5"></path>
				</g>
				
					<g id="g6092" transform="translate(43.6164, 4.6393) scale(-1, 1) rotate(-180) translate(-43.6164, -4.6393)translate(41.497, 2.124)">
					<path id="path6094" class="st0" d="M88.3-88.2c-2,0-2.4-2-2.4-3.9c0-1.9,0.4-3.8,2.4-3.8c2,0,2.4,1.9,2.4,3.8       C90.7-90.2,90.3-88.2,88.3-88.2z M88.3-96.9c-2.8,0-4.1,2.1-4.1,4.8c0,2.8,1.3,4.8,4.1,4.8c2.9,0,4.1-2.1,4.1-4.8       C92.4-94.8,91.2-96.9,88.3-96.9"></path>
				</g>
				
					<g id="g6096" transform="translate(48.2185, 4.689) scale(-1, 1) rotate(-180) translate(-48.2185, -4.689)translate(46.3003, 2.2137)">
					<path id="path6098" class="st0" d="M92.4-96.9c-2.6,0-3.7,1.2-3.7,3v6.4h1.7v-6.5c0-1.1,0.7-1.9,2.1-1.9c0.8,0,1.4,0.1,1.9,0.4       v8H96v-8.7C95.2-96.5,94-96.9,92.4-96.9"></path>
				</g>
				
					<g id="g6100" transform="translate(52.9563, 5.562) scale(-1, 1) rotate(-180) translate(-52.9563, -5.562)translate(50.9126, 2.124)">
					<path id="path6102" class="st0" d="M96.1-86.3c-0.6,0-1.1-0.1-1.5-0.3v-7.3c0.3-0.1,0.8-0.2,1.3-0.2c2.1,0,3.2,1.5,3.2,3.9       C99-87.8,98.3-86.3,96.1-86.3z M96.2-95c-0.6,0-1.2,0.1-1.6,0.2v-3.8h-1.7V-86c0.7,0.4,1.8,0.7,3.2,0.7c2.9,0,4.6-1.8,4.6-4.7       C100.7-93.1,98.9-95,96.2-95"></path>
				</g>
			</g>
			<g id="g9106">
				<path id="path6719" class="st1" d="M45.1,69.1c-10.8,0-19.5,8.6-19.5,19.3c0,5,1.9,9.5,5,12.9c-0.1,0.2-0.9,1.2-0.9,1.3      c-0.3,0.4-1,1.2-0.3,1.8c0.6,0.6,1.8-0.3,2.2-0.6c0.1,0,0.7-0.5,0.9-0.7c3.4,2.8,7.8,4.6,12.5,4.6c10.7,0,19.5-8.6,19.5-19.3      c0-3.5-1-6.9-2.6-9.7c0.6-0.6,1-1.2,1-1.6c0-0.9,0.5-2.1-3.5-2.5c-0.2,0-0.5,0-0.8-0.1C55.1,71.1,50.3,69.1,45.1,69.1z"></path>
				
					<radialGradient id="path8100_00000056409997218351714710000011203180557494926778_" cx="-166.0633" cy="507.7416" r="1.6065" gradientTransform="matrix(14.3077 14.1984 14.198 -14.3082 -4796.8579 9699.791)" gradientUnits="userSpaceOnUse">
					<stop offset="0" style="stop-color:#FFEBE3"></stop>
					<stop offset="0.1468" style="stop-color:#F39672"></stop>
					<stop offset="0.3662" style="stop-color:#E2001A"></stop>
					<stop offset="0.7083" style="stop-color:#CF001A"></stop>
					<stop offset="0.8424" style="stop-color:#AF0819"></stop>
					<stop offset="1" style="stop-color:#B30414"></stop>
				</radialGradient>
				<path id="path8100" style="fill:url(#path8100_00000056409997218351714710000011203180557494926778_);" d="M63.2,86.7      c0,10.7-8.7,19.3-19.5,19.3c-10.8,0-19.5-8.6-19.5-19.3c0-10.7,8.7-19.3,19.5-19.3C54.5,67.4,63.2,76.1,63.2,86.7"></path>
				<path id="path7433" class="st3" d="M42.1,76.5c0.4,0.3,2.4,1.5,3.1,1.9l0.2,0.1l0.1-0.1c0.2-0.4,0.3-0.6-0.3-1      c-0.6-0.4-2.6-1.6-3.1-1.9L41.5,75C41.7,75.7,41.9,76.3,42.1,76.5"></path>
				
					<g id="g7639" transform="translate(10.6631, 10.6791) scale(-1, 1) rotate(-180) translate(-10.6631, -10.6791)translate(1.8337, 2.7996)">
					<path id="path7641" class="st4" d="M40.7-62.8c0,0,2.2,2.9,2.5,3.2c0.2,0.4,0.3,0.6-0.3,1c-0.6,0.4-2.6,1.6-3.1,1.9       c-0.4,0.3-0.3,1.4,0.9,1.7c1.2,0.2,11.5,1.1,15.6,0.7c4-0.4,3.7-1.9,3.5-2.5c-0.2-0.9-1.6-2.2-3.8-4.2c0,0-3.6-3.3-6.3-5.6       C47-69,38.5-76,36.9-77.3c-1.6-1.3-8-6-8.4-6.3c-0.4-0.3-1.6-1.2-2.2-0.6c-0.6,0.6,0,1.4,0.3,1.8C26.9-82,39.7-64,40.7-62.8"></path>
				</g>
				
					<linearGradient id="path8622_00000083804355941433393920000013038465161807410356_" gradientUnits="userSpaceOnUse" x1="-176.1199" y1="487.2366" x2="-174.0444" y2="488.4456" gradientTransform="matrix(17.893 0 0 -15.5296 3177.7913 7665.125)">
					<stop offset="0" style="stop-color:#464648"></stop>
					<stop offset="4.910786e-02" style="stop-color:#464648"></stop>
					<stop offset="9.470125e-02" style="stop-color:#919294"></stop>
					<stop offset="0.1547" style="stop-color:#464648"></stop>
					<stop offset="0.9061" style="stop-color:#515153"></stop>
					<stop offset="0.9598" style="stop-color:#919294"></stop>
					<stop offset="0.9838" style="stop-color:#515153"></stop>
					<stop offset="1" style="stop-color:#515153"></stop>
					<stop offset="1" style="stop-color:#515153"></stop>
				</linearGradient>
				<path id="path8622" style="fill:url(#path8622_00000083804355941433393920000013038465161807410356_);" d="M61.3,74      c0.2,0.4,0.3,1.1,0.2,1.4c-0.2,0.9-1.6,2.2-3.8,4.2c0,0-3.6,3.3-6.3,5.6c-2.6,2.3-11.1,9.4-12.8,10.6c-1.6,1.3-8,6-8.4,6.3      c-0.3,0.2-1.7,0.4-2.3,0.4c0.2,0.3,0.6,0.6,0.9,1c0.7,0.6,1.8-0.3,2.2-0.6c0.4-0.3,6.8-5,8.4-6.3c1.6-1.3,10.1-8.3,12.8-10.6      c2.6-2.3,6.3-5.6,6.3-5.6c2.2-2,3.4-3,3.6-3.9C62.3,76.1,62.4,74.8,61.3,74"></path>
			</g>
		</g>
	</g>
</g>
</svg>
