<?xml version="1.0" encoding="UTF-8"?>
<svg xmlns="http://www.w3.org/2000/svg" xmlns:xlink="http://www.w3.org/1999/xlink" version="1.1" id="Ebene_1" x="0px" y="0px" viewBox="0 0 380 200" style="enable-background:new 0 0 380 200;" xml:space="preserve">
<style type="text/css">
	.st0{fill:#FECC13;}
	.st1{fill:#003979;}
</style>
<g id="MODULE_00000046298177515784205980000000744828372144735421_">
	
		<g id="MODULE_x5F_DESKTOP_x2F_Finanzierungspartner_x5F_Desktop_x5F_1024_x2B__00000158022559657113419320000015493712538414078611_" transform="translate(-1027, -354)">
		<g id="BHW_Bausparkasse_logo" transform="translate(1027, 354)">
			<polyline id="path19836" class="st0" points="254.1,77.8 235.5,122.2 263.2,122.2 281.9,77.8 254.1,77.8    "></polyline>
			<polyline id="path19848" class="st1" points="280.4,77.8 266.4,110.8 271.2,122.2 299.3,122.2 280.4,77.8    "></polyline>
			<path id="path19852" class="st1" d="M175,77.8h11.7l-1.5,34.2h0.1l13.2-34.2h15.1l-1,34.2h0.1l12.7-34.2h12l-19,44.5h-15.3     l0.9-34.9h-0.1l-13.4,34.9h-15.3L175,77.8L175,77.8z M132,77.8h11.9l-3.5,17h14.1l3.5-17h11.9l-9.2,44.5h-11.9l3.9-19.1h-14.1     l-3.9,19.1h-11.9L132,77.8z M90,77.8h19.8c4.6,0,12.4,1.8,12.4,10.2c0,6-4.6,10.5-11.6,11.3v0.1c5.1,0.8,8.6,3.7,8.6,8.6     c0,9.4-8.4,14.2-18.6,14.3H80.7L90,77.8z M94.2,113.8h3.2c6,0,10-1.7,10-6c0-3.9-2.8-4.5-8.1-4.5h-2.9L94.2,113.8L94.2,113.8z      M98,95.3h4.5c5,0,7.9-2,7.9-5c0-3.6-2.9-4.1-7.4-4.1H100L98,95.3"></path>
		</g>
	</g>
</g>
</svg>
